<svg id="Logos" xmlns="http://www.w3.org/2000/svg" viewBox="0 0 720 720"><defs><style>.cls-1{fill:#c9c9c9;}.cls-2{fill:#474c4f;}</style></defs><g id="Audition"><path class="cls-1" d="M0,720V0H720V720Zm360-30.76q161.86,0,323.71,0c7.19,0,6.26.92,6.27-6.09Q690,360,690,36.8c0-7,.92-6.09-6.27-6.09q-323.72,0-647.42,0a17.46,17.46,0,0,1-2.4,0c-2.88-.38-4.39.58-3.89,3.73a10.82,10.82,0,0,1,0,1.71q0,323.85,0,647.71c0,6.07-.66,5.4,5.58,5.4Q197.85,689.26,360,689.24Z"/><path class="cls-2" d="M360,689.24q-162.2,0-324.39,0c-6.24,0-5.58.67-5.58-5.4q0-323.86,0-647.71a10.82,10.82,0,0,0,0-1.71c-.5-3.15,1-4.11,3.89-3.73a17.46,17.46,0,0,0,2.4,0q323.72,0,647.42,0c7.19,0,6.26-.92,6.27,6.09q0,323.17,0,646.34c0,7,.92,6.09-6.27,6.09Q521.9,689.26,360,689.24ZM245.86,178.11c-9.6,0-19.21.13-28.8-.07-3.48-.07-4.37,1.31-4.73,4.54-1,9.06-1.54,18.29-3.84,27-7.39,28-15.49,55.86-23.31,83.77q-11.6,41.39-23.18,82.76Q150.27,418,138.53,459.9q-5.79,20.6-11.64,41.18c-1.52,5.39-.82,6.36,4.62,6.36h38.05c5.64,0,6.13-.34,7.55-5.75q10.92-41.38,21.71-82.81c.73-2.8,2-3.5,4.68-3.49q43.2.15,86.4,0c2.86,0,4.15.75,4.93,3.66,7.43,27.9,15.08,55.74,22.55,83.63.93,3.47,2.74,4.83,6.31,4.81,14.74-.12,29.49-.05,44.23-.05,5,0,5.61-.8,4.2-5.7q-10.87-37.67-21.75-75.32-12-41.61-24.1-83.21-12-41.26-23.91-82.53c-7.65-26.31-15.4-52.58-23-78.9-.83-2.88-2.23-3.76-5.08-3.72C264.83,178.19,255.34,178.11,245.86,178.11ZM582.39,370.26h-.84q0-49.87,0-99.76c0-5.11-.57-5.67-5.73-5.68q-19,0-38.06,0c-6.65,0-7,.33-7,6.94q0,92.39.06,184.78c0,2.91-.91,4.16-3.64,5.05a86.08,86.08,0,0,1-32.81,3.79c-15.64-1.09-27.55-8-32.39-23.43-2.29-7.26-3-15.26-3.07-22.93-.26-49.37-.13-98.73-.14-148.1,0-5.44-.65-6.09-6.13-6.09H411.18c-5.58,0-6.06.48-6.06,6.05,0,51.77-.1,103.54.1,155.3a180.24,180.24,0,0,0,2.2,26.23c2.32,15.25,8.66,28.84,19.52,39.93,12.5,12.76,28.9,17.68,45.77,20.46,14.65,2.42,29.4,1.54,44.22-.94,21.65-3.63,42.4-10,62.9-17.5,3.07-1.13,4-2.78,3.76-5.86-.53-6.95-1.13-13.91-1.15-20.87C582.32,435.17,582.39,402.72,582.39,370.26Z"/><path class="cls-1" d="M245.86,178.11c9.48,0,19,.08,28.45-.05,2.85,0,4.25.84,5.08,3.72,7.57,26.32,15.32,52.59,23,78.9q12,41.25,23.91,82.53,12,41.61,24.1,83.21,10.89,37.65,21.75,75.32c1.41,4.9.84,5.69-4.2,5.7-14.74,0-29.49-.07-44.23.05-3.57,0-5.38-1.34-6.31-4.81-7.47-27.89-15.12-55.73-22.55-83.63-.78-2.91-2.07-3.67-4.93-3.66q-43.2.15-86.4,0c-2.73,0-3.95.69-4.68,3.49q-10.71,41.44-21.71,82.81c-1.42,5.41-1.91,5.75-7.55,5.75H131.51c-5.44,0-6.14-1-4.62-6.36q5.82-20.59,11.64-41.18Q150.28,418,162,376.15q11.59-41.37,23.18-82.76c7.82-27.91,15.92-55.74,23.31-83.77,2.3-8.75,2.84-18,3.84-27,.36-3.23,1.25-4.61,4.73-4.54C226.65,178.24,236.26,178.11,245.86,178.11Zm.73,49.81L213.11,365.76h68.05C269.46,319.09,257.83,272.72,246.59,227.92Z"/><path class="cls-1" d="M582.39,370.26c0,32.46-.07,64.91.05,97.36,0,7,.62,13.92,1.15,20.87.23,3.08-.69,4.73-3.76,5.86-20.5,7.54-41.25,13.87-62.9,17.5-14.82,2.48-29.57,3.36-44.22.94-16.87-2.78-33.27-7.7-45.77-20.46-10.86-11.09-17.2-24.68-19.52-39.93a180.24,180.24,0,0,1-2.2-26.23c-.2-51.76-.1-103.53-.1-155.3,0-5.57.48-6.05,6.06-6.05h41.49c5.48,0,6.13.65,6.13,6.09,0,49.37-.12,98.73.14,148.1,0,7.67.78,15.67,3.07,22.93,4.84,15.41,16.75,22.34,32.39,23.43a86.08,86.08,0,0,0,32.81-3.79c2.73-.89,3.65-2.14,3.64-5.05q-.14-92.4-.06-184.78c0-6.61.31-6.93,7-6.94q19,0,38.06,0c5.16,0,5.73.57,5.73,5.68q0,49.89,0,99.76Z"/><path class="cls-2" d="M246.59,227.92c11.24,44.8,22.87,91.17,34.57,137.84H213.11Z"/></g></svg>