<svg id="Logos" xmlns="http://www.w3.org/2000/svg" viewBox="0 0 720 720"><defs><style>.cls-1{fill:#c9c9c9;}.cls-2{fill:#474c4f;}</style></defs><g id="Illustrator"><path class="cls-1" d="M720,720H0V0H720ZM360.1,688.73H680.79c9.51,0,9.52,0,9.52-9.75V41.22c0-10.06,0-10.07-9.89-10.07H39.73c-9.86,0-9.87,0-9.87,10.09V678.3c0,10.42,0,10.43,10.25,10.43Z" transform="translate(0 0)"/><path class="cls-2" d="M360.1,688.73h-320c-10.24,0-10.25,0-10.25-10.43V41.24c0-10.08,0-10.09,9.87-10.09H680.42c9.88,0,9.89,0,9.89,10.07V679c0,9.73,0,9.75-9.52,9.75ZM264,163.91c-2.24,12.72-3.35,24.17-6.33,35.12-15.07,55.38-30.61,110.64-46,165.94q-18.13,65.16-36.32,130.3c-2,7.15-1.23,8.18,6.28,8.22,12,.06,23.92-.32,35.86.16,6.11.24,8.87-2.08,10.28-7.74,6.89-27.51,14.13-54.92,20.87-82.46,1.06-4.33,2.61-5.71,6.93-5.68,28.12.15,56.25.19,84.37,0,4.83,0,6.29,2,7.38,6.15,7.35,27.85,15,55.63,22.27,83.49,1.17,4.46,3.38,6.2,7.8,6.17,14.77-.1,29.53-.08,44.3,0,4.93,0,6.84-1.59,5.2-6.87-3.1-10-5.66-20.13-8.55-30.18q-18.5-64.34-37.05-128.67-23.91-83.08-47.68-166.22c-1.63-5.75-4.17-8-10.16-7.78-11.94.38-23.91.11-35.86.11ZM526.22,379c0-39.34-.09-78.68.11-118,0-6-1.59-8.38-7.93-8.18-13.1.41-26.23.23-39.34.07-4.63-.06-6.72,1.27-6.71,6.4q.19,118.36,0,236.75c0,6,2.31,7.68,7.92,7.55,12.41-.28,24.84-.41,37.24.05,6.71.25,8.9-1.87,8.85-8.7C526.08,456.3,526.22,417.66,526.22,379Zm-27.74-161c19.49.59,31.68-11.29,31.6-31.84-.07-19-13.28-31-31-30.65-19.13.35-30.76,11.79-30.77,31.18C468.29,206.8,479.13,218.05,498.48,218.05Z" transform="translate(0 0)"/><path class="cls-1" d="M264,163.91H287.6c11.95,0,23.92.27,35.86-.11,6-.2,8.53,2,10.16,7.78q23.6,83.17,47.68,166.22,18.51,64.35,37.05,128.67c2.89,10,5.45,20.2,8.55,30.18,1.64,5.28-.27,6.89-5.2,6.87-14.77-.06-29.53-.08-44.3,0-4.42,0-6.63-1.71-7.8-6.17-7.29-27.86-14.92-55.64-22.27-83.49-1.09-4.1-2.55-6.19-7.38-6.15-28.12.23-56.25.19-84.37,0-4.32,0-5.87,1.35-6.93,5.68-6.74,27.54-14,54.95-20.87,82.46-1.41,5.66-4.17,8-10.28,7.74-11.94-.48-23.9-.1-35.86-.16-7.51,0-8.27-1.07-6.28-8.22q18.15-65.14,36.32-130.3c15.4-55.3,30.94-110.56,46-165.94C260.67,188.08,261.78,176.63,264,163.91Zm33.63,51c-11.6,47.42-23.1,94.48-34.7,141.92h70.16C321.2,309.13,309.47,262.16,297.65,214.87Z" transform="translate(0 0)"/><path class="cls-1" d="M526.22,379c0,38.64-.14,77.28.14,115.92,0,6.83-2.14,8.95-8.85,8.7-12.4-.46-24.83-.33-37.24-.05-5.61.13-7.93-1.56-7.92-7.55q.21-118.38,0-236.75c0-5.13,2.08-6.46,6.71-6.4,13.11.16,26.24.34,39.34-.07,6.34-.2,8,2.22,7.93,8.18C526.13,300.34,526.22,339.68,526.22,379Z" transform="translate(0 0)"/><path class="cls-1" d="M498.48,218.05c-19.35,0-30.19-11.25-30.18-31.31,0-19.39,11.64-30.83,30.77-31.18,17.73-.32,30.94,11.65,31,30.65C530.16,206.76,518,218.64,498.48,218.05Z" transform="translate(0 0)"/><path class="cls-2" d="M297.65,214.87c11.82,47.29,23.55,94.26,35.46,141.92H263C274.55,309.35,286.05,262.29,297.65,214.87Z" transform="translate(0 0)"/></g></svg>