<svg id="Logos" xmlns="http://www.w3.org/2000/svg" viewBox="0 0 720 720"><defs><style>.cls-1{fill:#c9c9c9;}.cls-2{fill:#474c4f;}</style></defs><g id="Photoshop"><path class="cls-1" d="M720,720H0V0H720ZM42.4,670.35H679V50.76H42.4Z" transform="translate(0 0)"/><path class="cls-2" d="M42.4,670.35V50.76H679V670.35ZM232.62,381a25.24,25.24,0,0,1,3.16-.5,62.91,62.91,0,0,1,6.59.14,155.75,155.75,0,0,0,52.84-4c34.41-8.41,60.77-27,72.71-61.75,8.45-24.62,8.53-49.82,1.33-74.73-7.34-25.4-23.48-43.6-47.75-54.37a123.56,123.56,0,0,0-50-10.62c-26.16-.12-52.34.61-78.5,1.06-12.86.23-12.87.31-12.86,13.24q0,95.37.09,190.73,0,52.77.16,105.54c0,9.85,0,9.86,10.12,9.86q16.5,0,33,0c8.81,0,8.9-.1,8.92-9.19q.09-48.58.17-97.15Zm169.61,56c-.18,2.6-.45,4.7-.46,6.81,0,11.59.44,23.21-.17,34.78-.36,6.81,2.33,10.17,8.33,12.39,29.12,10.78,58.78,13.35,88.63,4.19,25.64-7.87,42.6-24.89,47.42-51.93,4.94-27.77-2.24-51.75-25.64-68.91-10.4-7.63-22.07-13.54-33.1-20.33-9.49-5.85-19.59-11-28.16-18-12.57-10.27-9.17-26.88,5.91-33a28.46,28.46,0,0,1,6.31-1.82c20.44-3.2,39.65.9,57.94,10.1,6.3,3.18,7.57,2.5,7.6-4.65.06-11.19-.32-22.4.15-33.58.27-6.39-2.24-10-8.17-11.15-11.33-2.1-22.68-4.23-34.11-5.62a102.11,102.11,0,0,0-48.88,5.64c-50.46,19.05-53.52,75-31.76,103.12,11.44,14.76,27.43,23.42,43.52,32.09a261.2,261.2,0,0,1,29.72,18.83c7.32,5.33,10.17,13.3,7.64,22.37-2.65,9.47-10.05,13.44-19,15.17-15.72,3-31.09.83-46-4.34C420.87,446,412.2,441.4,402.23,437Z" transform="translate(0 0)"/><path class="cls-1" d="M232.62,381v8.23q-.09,48.57-.17,97.15c0,9.09-.11,9.18-8.92,9.19q-16.5,0-33,0c-10.08,0-10.1,0-10.12-9.86q-.09-52.77-.16-105.54-.08-95.37-.09-190.73c0-12.93,0-13,12.86-13.24,26.16-.45,52.34-1.18,78.5-1.06a123.56,123.56,0,0,1,50,10.62c24.27,10.77,40.41,29,47.75,54.37,7.2,24.91,7.12,50.11-1.33,74.73-11.94,34.78-38.3,53.34-72.71,61.75a155.75,155.75,0,0,1-52.84,4,62.91,62.91,0,0,0-6.59-.14A25.24,25.24,0,0,0,232.62,381Zm.37-46.5c10,0,19.75.39,29.44-.09,14.52-.71,28.74-3.21,40.46-12.69,17.92-14.49,20.35-34.34,17.92-55.43-2-17-10.2-30.08-25.9-37.78-19.83-9.72-40.84-6.47-61.92-6.17Z" transform="translate(0 0)"/><path class="cls-1" d="M402.23,437c10,4.43,18.64,9,27.79,12.17,14.86,5.17,30.23,7.39,46,4.34,8.93-1.73,16.33-5.7,19-15.17,2.53-9.07-.32-17-7.64-22.37a261.2,261.2,0,0,0-29.72-18.83c-16.09-8.67-32.08-17.33-43.52-32.09-21.76-28.1-18.7-84.07,31.76-103.12a102.11,102.11,0,0,1,48.88-5.64c11.43,1.39,22.78,3.52,34.11,5.62,5.93,1.1,8.44,4.76,8.17,11.15-.47,11.18-.09,22.39-.15,33.58,0,7.15-1.3,7.83-7.6,4.65-18.29-9.2-37.5-13.3-57.94-10.1A28.46,28.46,0,0,0,465,303c-15.08,6.11-18.48,22.72-5.91,33,8.57,7,18.67,12.15,28.16,18,11,6.79,22.7,12.7,33.1,20.33,23.4,17.16,30.58,41.14,25.64,68.91-4.82,27-21.78,44.06-47.42,51.93-29.85,9.16-59.51,6.59-88.63-4.19-6-2.22-8.69-5.58-8.33-12.39.61-11.57.14-23.19.17-34.78C401.78,441.67,402.05,439.57,402.23,437Z" transform="translate(0 0)"/><path class="cls-2" d="M233,334.52V222.36c21.08-.3,42.09-3.55,61.92,6.17,15.7,7.7,23.94,20.79,25.9,37.78,2.43,21.09,0,40.94-17.92,55.43-11.72,9.48-25.94,12-40.46,12.69C252.74,334.91,243,334.52,233,334.52Z" transform="translate(0 0)"/></g></svg>