<svg id="Logos" xmlns="http://www.w3.org/2000/svg" viewBox="0 0 720 720"><defs><style>.cls-1{fill:#474c4f;}.cls-2{fill:#c9c9c9;}</style></defs><g id="Substance"><path class="cls-1" d="M0,720V0H720V720ZM567.23,416.57c1.53-128.51-108-232.34-236.67-228.32C211.12,192,108.62,291.93,109.77,409.32c1.35,138,99.08,235.05,235.45,233.8C467.14,642,568.25,538.82,567.23,416.57Zm47,111.39c-32,.23-57.52,27.35-57.05,60.57.45,31.74,27,57.82,58.57,57.5,30.49-.32,59.73-29.87,59.44-60.08C674.87,555.33,645.86,527.73,614.22,528ZM374.6,110.74c.07-20.73-15.7-37-35.78-36.94A37.12,37.12,0,0,0,302,110.29c-.24,20.53,15.39,36.16,36.34,36.32C359.58,146.77,374.53,132,374.6,110.74ZM99.29,611.79c15.79-.06,25.4-9.18,25.51-24.19.1-13.79-12.43-26.28-26.48-26.4-13.13-.1-26.57,12.52-26.61,25C71.67,599.25,85.24,611.85,99.29,611.79Z" transform="translate(0)"/><path class="cls-2" d="M567.23,416.57c1,122.25-100.09,225.42-222,226.55-136.37,1.25-234.1-95.79-235.45-233.8C108.62,291.93,211.12,192,330.56,188.25,459.21,184.23,568.76,288.06,567.23,416.57Zm-73.16-9.14c0-25.73.48-48.6-.41-71.42-.18-4.53-4.64-10.55-8.82-13-44-26-88.52-51.13-132.53-77.12-9-5.3-15.94-5.32-24.87-.11-35.87,20.92-72.32,40.84-108.18,61.76-34.13,19.91-33.93,20.26-33.93,60.58,0,8.53.89,17.18-.21,25.57-1.5,11.45,3.74,15.51,13.93,18.61,62.58,19,125,38.64,187.42,58.14,4,1.26,7.87,3.14,14.35,5.76-18.9,10.55-34.7,20.5-51.53,28.16-6.1,2.77-15.64,2.23-22-.55a249.15,249.15,0,0,1-41.85-23.15c-17.48-12.18-43.68-13.49-50.63-39.39-.36-1.35-3.48-2.24-5.47-2.83-15.15-4.45-30.34-8.78-46.93-13.56,0,22.1.67,42.36-.25,62.54-.57,12.44,4.37,19.61,14.89,25.38,42.93,23.57,85.3,48.18,128.6,71.05,6.94,3.67,19.07,3.5,26.15-.11,30.81-15.67,60.77-33,90.77-50.26,16.95-9.72,39.78-16.7,48.26-31.57,8.59-15.07,1.93-38.41,3.51-58,1.17-14.48-4.74-20.66-18.09-24.7-61.58-18.63-122.9-38.1-184.3-57.32-3.64-1.14-7.13-2.77-13.55-5.29,20.14-10.7,37.25-20.38,55-28.78,4.64-2.2,12.82-2.73,16.6-.08,30.36,21.26,70.19,28.72,91.93,62.57a7.49,7.49,0,0,0,4,2.48C461.08,397.45,476.27,402,494.07,407.43Z" transform="translate(0)"/><path class="cls-2" d="M614.22,528c31.64-.23,60.65,27.37,61,58,.29,30.21-28.95,59.76-59.44,60.08-31.55.32-58.12-25.76-58.57-57.5C556.7,555.31,582.24,528.19,614.22,528Z" transform="translate(0)"/><path class="cls-2" d="M374.6,110.74c-.07,21.26-15,36-36.28,35.87-20.95-.16-36.58-15.79-36.34-36.32A37.12,37.12,0,0,1,338.82,73.8C358.9,73.73,374.67,90,374.6,110.74Z" transform="translate(0)"/><path class="cls-2" d="M99.29,611.79c-14.05.06-27.62-12.54-27.58-25.59,0-12.48,13.48-25.1,26.61-25,14.05.12,26.58,12.61,26.48,26.4C124.69,602.61,115.08,611.73,99.29,611.79Z" transform="translate(0)"/><path class="cls-1" d="M494.07,407.43c-17.8-5.4-33-10-48.14-14.67a7.49,7.49,0,0,1-4-2.48C420.2,356.43,380.37,349,350,327.71c-3.78-2.65-12-2.12-16.6.08-17.72,8.4-34.83,18.08-55,28.78,6.42,2.52,9.91,4.15,13.55,5.29,61.4,19.22,122.72,38.69,184.3,57.32,13.35,4,19.26,10.22,18.09,24.7-1.58,19.6,5.08,42.94-3.51,58-8.48,14.87-31.31,21.85-48.26,31.57-30,17.22-60,34.59-90.77,50.26-7.08,3.61-19.21,3.78-26.15.11C282.39,561,240,536.35,197.09,512.78c-10.52-5.77-15.46-12.94-14.89-25.38.92-20.18.25-40.44.25-62.54,16.59,4.78,31.78,9.11,46.93,13.56,2,.59,5.11,1.48,5.47,2.83,7,25.9,33.15,27.21,50.63,39.39a249.15,249.15,0,0,0,41.85,23.15c6.32,2.78,15.86,3.32,22,.55,16.83-7.66,32.63-17.61,51.53-28.16-6.48-2.62-10.32-4.5-14.35-5.76-62.44-19.5-124.84-39.13-187.42-58.14-10.19-3.1-15.43-7.16-13.93-18.61,1.1-8.39.21-17,.21-25.57,0-40.32-.2-40.67,33.93-60.58,35.86-20.92,72.31-40.84,108.18-61.76,8.93-5.21,15.88-5.19,24.87.11,44,26,88.51,51.15,132.53,77.12,4.18,2.47,8.64,8.49,8.82,13C494.55,358.83,494.07,381.7,494.07,407.43Z" transform="translate(0)"/></g></svg>