<svg id="Logos" xmlns="http://www.w3.org/2000/svg" viewBox="0 0 720 720"><defs><style>.cls-1{fill:#474c4f;}.cls-2{fill:#c9c9c9;}</style></defs><g id="Maya"><path class="cls-1" d="M720,720H0V0H720ZM257.34,70c-3.32.22-6.1.33-8.87.6-15.19,1.51-30.36,3.14-45.56,4.58-13.77,1.3-27.56,2.37-41.33,3.63-15.13,1.39-30.24,2.93-45.37,4.3-4.76.43-5.52,1-5.54,5.8,0,9.57,0,19.15,0,28.72q-.39,157.15-.78,314.3c-.07,29.07,0,58.14,0,87.2,0,6.08,0,12.15,0,18.23,0,3,1.2,5.22,4.53,5.45,5.28.37,10.57.91,15.85.87,11.84-.09,23.68-.43,35.51-.79a62.69,62.69,0,0,0,9.48-1c9-1.69,18-3.1,26.79-5.5,11.11-3,21.6-7.64,30.64-15.11a7.7,7.7,0,0,0,3-6.92c-.34-7.17-.63-14.36-.74-21.54-.15-10.49,0-21-.22-31.48-.35-15.43-1-30.85-1.38-46.28-.62-26.61-1.32-53.23-1.44-79.85,0-4.64,2.09-9.56,4.2-13.87,2.19-4.49,4.9-4.1,7.32.34Q277.72,384.57,312,447.46c1.52,2.8,3.29,3.88,6.55,3.91q42.79.33,85.59,1.1c3.44.07,5.2-1,6.77-4q32.73-62.55,65.68-125a12.08,12.08,0,0,1,2.84-3.74,3.74,3.74,0,0,1,3.22-.44c.66.28,1.13,1.78,1.14,2.73,0,8.78-.15,17.55-.07,26.32q.84,85,1.84,170c0,2.6,1.45,5.2,2.27,7.78.92,2.9,2.35,5.72,2.74,8.67.48,3.7,2.24,5.54,5.76,5.76,2.51.15,5.05,0,7.57,0H600.7c2.95,0,5.48.07,5.51-4.24.1-18.5.68-37,.7-55.5q.12-121.6.06-243.21c0-3.16.67-6.33.69-9.5.1-12.7,0-25.41.08-38.11q.35-51.57.77-103.14c0-4.45-1.35-5.78-5.62-5.78q-70.2,0-140.4-.06c-3.09,0-4.67.85-5.92,3.85q-38.44,92.09-77.1,184.08c-6.49,15.48-12.93,31-19.51,46.43-.48,1.13-1.95,2.53-3,2.54s-2.54-1.39-3-2.5c-8.84-22.41-17.51-44.89-26.3-67.33q-18.25-46.53-36.6-93-11.42-29-22.87-58C264.68,88,261,79.07,257.34,70Zm40.94,546.07.89-.08c4.11,13.9,8.42,27.74,12.28,41.7,3.09,11.17,2.85,11.24,14.14,11.14,8.05-.07,8.36,0,10.9-7.46,3-8.89,5.35-18,8.05-27,1.38-4.58,2.91-9.12,4.37-13.67a4.5,4.5,0,0,1,1,2.88q.24,19.39.45,38.77c.06,6.45.3,6.71,6.73,6.71,2,0,4,.24,6,.24,4.89,0,5.43-.55,5.43-5.6q0-30.41,0-60.81c0-7.33-.08-14.67,0-22,0-2.7-.82-3.88-3.66-3.8-5.2.15-10.42-.15-15.59.18-1.44.09-3.63,1.52-4,2.78-4,12.88-7.61,25.86-11.4,38.8-2.73,9.3-5.55,18.57-8.32,27.86-4.45-11.73-8-23.45-11.41-35.21-3.09-10.67-5.91-21.41-9.09-32-.31-1-2.28-2.14-3.54-2.21-4.92-.26-9.86-.12-14.79-.11-5.39,0-5.6.2-5.6,5.67q0,39.19,0,78.4c0,7.91.22,8.09,8.06,7.64a17.89,17.89,0,0,1,3.17.29c4.75.59,5.74-.22,5.74-5,0-14.67,0-29.34,0-44C298.09,618.78,298.21,617.42,298.28,616.06Zm265.68-39a64,64,0,0,1-7.59-.06c-3.72-.44-5.21,1.39-6.1,4.66-1.48,5.47-3.23,10.86-4.89,16.27q-4.77,15.56-9.56,31.08c-3.56,11.61-7.07,23.24-10.69,34.83-1,3.27.21,5.32,3.71,5.43,3,.09,6.06-.1,9.08.11,3.65.27,5.72-1.2,6.62-4.77,1.25-5,2.67-10,4.14-14.91.69-2.29,1.43-4.48,4.71-4.4,7.2.18,14.4-.09,21.59.2a5.28,5.28,0,0,1,3.81,2.91c2.09,5.69,3.52,11.63,5.68,17.29a6.44,6.44,0,0,0,4.45,3.34c3.1.4,6.33-.3,9.5-.34,6.31-.07,6.3,0,4.69-6.25-.26-1-.24-2.12-.56-3.12-7.69-24-15.48-47.86-23.09-71.83-3.3-10.39-3.13-10.44-13.9-10.44ZM461.78,666.16c-2.07-6.87-3.77-12.83-5.65-18.73q-10.61-33.25-21.3-66.48c-.8-2.5-2.2-4-5.2-3.92-5.72.19-11.46.17-17.18,0-2.28-.07-3.42.77-4.05,2.83-3.2,10.37-6.49,20.7-9.65,31.07-3.32,10.87-6.52,21.77-9.78,32.65-2,6.7-4.15,13.36-6,20.1-1.12,4-.23,5,3.89,5.1,2.8.05,5.7-.42,8.37.19,4.15,1,5.9-.76,6.87-4.43,1.47-5.49,3-11,4.76-16.35.38-1.14,1.92-2.65,3-2.68,7.72-.22,15.45-.19,23.17,0a3.94,3.94,0,0,1,3,1.84,171.85,171.85,0,0,1,5.64,17.76c.78,3.27,2.71,4.16,5.28,4.18a77.76,77.76,0,0,0,11.51-.8C459.69,668.28,460.75,666.9,461.78,666.16Zm-6.84-89c.85,2.85,1.22,5.15,2.21,7.14,2.47,5,5.2,9.8,7.86,14.67q6.76,12.39,13.56,24.75c3.11,5.63,5.51,11.26,5,18.06-.55,8-.1,16-.14,24,0,2.66.72,3.85,3.79,3.39a48.71,48.71,0,0,1,10-.25c4.6.26,4.92.15,4.93-4.55,0-9.72,0-19.45.05-29.18a10.29,10.29,0,0,1,.79-4.62c7.28-13.54,14.81-26.95,22-40.53,2-3.81,5.46-7.39,3.91-12.86-5.36,0-10.65-.07-15.94.09-.77,0-1.8,1-2.22,1.82-2.79,5.41-5.45,10.9-8.17,16.36-3,6-6,12-9.26,18.53-1.28-2.07-2.37-3.56-3.19-5.2-4.59-9.26-9.05-18.59-13.74-27.81-.76-1.5-2.35-3.52-3.69-3.62C467.14,576.89,461.56,577.13,454.94,577.13Z" transform="translate(0 0)"/><path class="cls-2" d="M257.34,70c3.67,9.08,7.34,18,10.91,27q11.47,29,22.87,58,18.31,46.51,36.6,93c8.79,22.44,17.46,44.92,26.3,67.33.44,1.11,2,2.5,3,2.5s2.48-1.41,3-2.54c6.58-15.44,13-30.95,19.51-46.43q38.58-92,77.1-184.08c1.25-3,2.83-3.86,5.92-3.85q70.2.12,140.4.06c4.27,0,5.65,1.33,5.62,5.78q-.35,51.57-.77,103.14c-.08,12.7,0,25.41-.08,38.11,0,3.17-.69,6.34-.69,9.5q-.06,121.61-.06,243.21c0,18.5-.6,37-.7,55.5,0,4.31-2.56,4.24-5.51,4.24H503.89c-2.52,0-5.06.17-7.57,0-3.52-.22-5.28-2.06-5.76-5.76-.39-2.95-1.82-5.77-2.74-8.67-.82-2.58-2.24-5.18-2.27-7.78q-1.07-85-1.84-170c-.08-8.77.11-17.54.07-26.32,0-1-.48-2.45-1.14-2.73a3.74,3.74,0,0,0-3.22.44,12.08,12.08,0,0,0-2.84,3.74q-32.91,62.46-65.68,125c-1.57,3-3.33,4.08-6.77,4q-42.79-.78-85.59-1.1c-3.26,0-5-1.11-6.55-3.91q-34.22-62.94-68.59-125.77c-2.42-4.44-5.13-4.83-7.32-.34-2.11,4.31-4.22,9.23-4.2,13.87.12,26.62.82,53.24,1.44,79.85.36,15.43,1,30.85,1.38,46.28.23,10.49.07,21,.22,31.48.11,7.18.4,14.37.74,21.54a7.7,7.7,0,0,1-3,6.92c-9,7.47-19.53,12.09-30.64,15.11-8.78,2.4-17.83,3.81-26.79,5.5a62.69,62.69,0,0,1-9.48,1c-11.83.36-23.67.7-35.51.79-5.28,0-10.57-.5-15.85-.87-3.33-.23-4.51-2.44-4.53-5.45,0-6.08,0-12.15,0-18.23,0-29.06-.06-58.13,0-87.2q.36-157.16.78-314.3c0-9.57,0-19.15,0-28.72,0-4.8.78-5.37,5.54-5.8,15.13-1.37,30.24-2.91,45.37-4.3,13.77-1.26,27.56-2.33,41.33-3.63,15.2-1.44,30.37-3.07,45.56-4.58C251.24,70.32,254,70.21,257.34,70Z" transform="translate(0 0)"/><path class="cls-2" d="M298.28,616.06c-.07,1.36-.19,2.72-.19,4.07,0,14.67,0,29.34,0,44,0,4.77-1,5.58-5.74,5a17.89,17.89,0,0,0-3.17-.29c-7.84.45-8.06.27-8.06-7.64q0-39.19,0-78.4c0-5.47.21-5.66,5.6-5.67,4.93,0,9.87-.15,14.79.11,1.26.07,3.23,1.18,3.54,2.21,3.18,10.64,6,21.38,9.09,32,3.4,11.76,7,23.48,11.41,35.21,2.77-9.29,5.59-18.56,8.32-27.86,3.79-12.94,7.43-25.92,11.4-38.8.39-1.26,2.58-2.69,4-2.78,5.17-.33,10.39,0,15.59-.18,2.84-.08,3.7,1.1,3.66,3.8-.12,7.33,0,14.67,0,22q0,30.4,0,60.81c0,5-.54,5.6-5.43,5.6-2,0-4-.24-6-.24-6.43,0-6.67-.26-6.73-6.71q-.18-19.38-.45-38.77a4.5,4.5,0,0,0-1-2.88c-1.46,4.55-3,9.09-4.37,13.67-2.7,9-5.05,18.1-8.05,27-2.54,7.5-2.85,7.39-10.9,7.46-11.29.1-11,0-14.14-11.14-3.86-14-8.17-27.8-12.28-41.7Z" transform="translate(0 0)"/><path class="cls-2" d="M564,577.08h1.6c10.77,0,10.6,0,13.9,10.44,7.61,24,15.4,47.88,23.09,71.83.32,1,.3,2.1.56,3.12,1.61,6.24,1.62,6.18-4.69,6.25-3.17,0-6.4.74-9.5.34a6.44,6.44,0,0,1-4.45-3.34c-2.16-5.66-3.59-11.6-5.68-17.29a5.28,5.28,0,0,0-3.81-2.91c-7.19-.29-14.39,0-21.59-.2-3.28-.08-4,2.11-4.71,4.4-1.47,4.94-2.89,9.91-4.14,14.91-.9,3.57-3,5-6.62,4.77-3-.21-6.06,0-9.08-.11-3.5-.11-4.74-2.16-3.71-5.43,3.62-11.59,7.13-23.22,10.69-34.83q4.77-15.54,9.56-31.08c1.66-5.41,3.41-10.8,4.89-16.27.89-3.27,2.38-5.1,6.1-4.66A64,64,0,0,0,564,577.08Zm.31,20.91-1.14.06c-2.84,10.32-5.67,20.64-8.72,31.76,6.18,0,11.34.05,16.5,0,2.48,0,2.24-1.72,1.75-3.4-1.33-4.57-2.66-9.15-4-13.71Q566.48,605.32,564.27,598Z" transform="translate(0 0)"/><path class="cls-2" d="M461.78,666.16c-1,.74-2.09,2.12-3.33,2.3a77.76,77.76,0,0,1-11.51.8c-2.57,0-4.5-.91-5.28-4.18A171.85,171.85,0,0,0,436,647.32a3.94,3.94,0,0,0-3-1.84c-7.72-.16-15.45-.19-23.17,0-1,0-2.58,1.54-3,2.68-1.77,5.39-3.29,10.86-4.76,16.35-1,3.67-2.72,5.39-6.87,4.43-2.67-.61-5.57-.14-8.37-.19-4.12-.07-5-1.06-3.89-5.1,1.86-6.74,4-13.4,6-20.1,3.26-10.88,6.46-21.78,9.78-32.65,3.16-10.37,6.45-20.7,9.65-31.07.63-2.06,1.77-2.9,4.05-2.83,5.72.17,11.46.19,17.18,0,3-.1,4.4,1.42,5.2,3.92q10.67,33.22,21.3,66.48C458,653.33,459.71,659.29,461.78,666.16Zm-40.56-70.52c-3.3,11.86-6.33,22.74-9.44,33.94h19.16C427.7,618.26,424.6,607.43,421.22,595.64Z" transform="translate(0 0)"/><path class="cls-2" d="M454.94,577.13c6.62,0,12.2-.24,17.73.17,1.34.1,2.93,2.12,3.69,3.62,4.69,9.22,9.15,18.55,13.74,27.81.82,1.64,1.91,3.13,3.19,5.2,3.26-6.52,6.27-12.52,9.26-18.53,2.72-5.46,5.38-10.95,8.17-16.36.42-.8,1.45-1.8,2.22-1.82,5.29-.16,10.58-.09,15.94-.09,1.55,5.47-1.9,9-3.91,12.86-7.18,13.58-14.71,27-22,40.53a10.29,10.29,0,0,0-.79,4.62c-.07,9.73,0,19.46-.05,29.18,0,4.7-.33,4.81-4.93,4.55a48.71,48.71,0,0,0-10,.25c-3.07.46-3.8-.73-3.79-3.39,0-8-.41-16,.14-24,.48-6.8-1.92-12.43-5-18.06q-6.82-12.35-13.56-24.75c-2.66-4.87-5.39-9.7-7.86-14.67C456.16,582.28,455.79,580,454.94,577.13Z" transform="translate(0 0)"/><path class="cls-1" d="M564.27,598q2.19,7.34,4.38,14.68c1.35,4.56,2.68,9.14,4,13.71.49,1.68.73,3.37-1.75,3.4-5.16.08-10.32,0-16.5,0,3.05-11.12,5.88-21.44,8.72-31.76Z" transform="translate(0 0)"/><path class="cls-1" d="M421.22,595.64c3.38,11.79,6.48,22.62,9.72,33.94H411.78C414.89,618.38,417.92,607.5,421.22,595.64Z" transform="translate(0 0)"/></g></svg>