<svg id="Logos" xmlns="http://www.w3.org/2000/svg" viewBox="0 0 720 720"><defs><style>.cls-1{fill:#474c4f;}.cls-2{fill:#c9c9c9;}</style></defs><rect class="cls-1" width="720" height="720"/><path class="cls-2" d="M291.25,278.54c-2.75,0-5.5,0-8.26,0q-56.24,0-112.46,0c-4.15,0-8.44.21-12.41-.75C136,272.43,129.51,251,144.78,234.09c10-11.1,23-15.72,37.66-15.73q117.56-.09,235.09-.07h9.09l.84-1.88c-7.86-6.5-15.68-13-23.58-19.48-17.53-14.31-34.52-29.4-52.84-42.62-17.29-12.48-15-33.75,5.33-42.14,14.44-6,29.1-6.21,42.12,3.76C465,166.86,531.75,217.44,597.57,269.24c38.69,30.45,63.16,71,68.91,120,9.85,84-26,146.66-96.16,190.69-32,20.08-67.62,29.84-105.49,31.54-67.7,3-126.47-17.74-174.37-66.12-29.57-29.87-47.48-66-51.93-108.16-.83-7.87.57-16,1-25.84-3.28,2.42-5.46,3.89-7.49,5.55q-57.73,47.15-115.46,94.29c-9.74,7.93-20.84,12.51-33.62,12.52-26.74,0-41.69-21.5-32.58-46.72,3.86-10.69,10.81-18.91,19.61-25.67q108-83,216-165.8c2-1.54,3.93-3.18,5.89-4.77C291.72,280,291.49,279.29,291.25,278.54ZM446.47,520c33.36-.24,59.26-7.43,82.86-22.52,60.29-38.54,74.17-116.78,30.17-169.87-46.59-56.22-133.79-65.65-191.83-20.74-48.21,37.29-62.22,97.91-32.76,147.8C361,498.72,401.87,517.85,446.47,520Z" transform="translate(0)"/><path class="cls-2" d="M455.44,471.2c-26.93-.19-49.77-9.71-67.29-30.48-23.56-27.94-21.42-69.23,4.6-95.83,30.06-30.72,83.42-34,117.09-7.21,45.23,36,36.68,102.19-16.65,125.23C481.51,468,455.64,471.86,455.44,471.2Z" transform="translate(0)"/></svg>