<svg id="Logos" xmlns="http://www.w3.org/2000/svg" viewBox="0 0 720 720"><defs><style>.cls-1{fill:#474c4f;}.cls-2{fill:#c9c9c9;}</style></defs><rect class="cls-1" width="720" height="720"/><path class="cls-2" d="M54,143.07c5.33-2.45,10.44-6.06,16-7.16,30.08-5.92,60.11-12.86,90.48-16.07,16.14-1.71,33.34,1.71,49.38,5.72,62,15.52,121.42,3.11,180.59-15.59a47.2,47.2,0,0,1,24.46-.68c14,3.46,28.1,8,41.1,14.36,22.7,11.17,44.26,15.13,70.28,9.49,30.14-6.53,62-4.4,93.43-6,3.55,11.7,6.47,21.3,10.27,33.8-24,2.43-46.94,2.65-68.83,7.7-14.91,3.44-28.39,13.61-42.46,20.87a3.85,3.85,0,0,0-1.92,2.7c-.16,19.32-.8,38.66.12,57.93.32,6.56,4.05,13.23,7.2,19.31,27.29,52.66,8.18,75.74-26.61,117.19-6.86,8.16-11,21.48-11.11,32.49-.27,22.64-5.31,41.79-21.17,58.08-10.69,11-14.25,25-14.18,41.15.14,35.28-1,70.61-3.15,105.81-.37,6.06-7.11,15-12.58,16.7-9.36,2.81-20.18,1.86-30.05.24-2.31-.38-4.83-10-4.19-14.9.35-2.7,7.26-4.26,10.95-6.75,4.05-2.74,11-5.82,11.16-9,1.56-36.08-11.52-68.11-24.74-100l-5.23-.45c-4,10.92-8.51,21.68-12,32.79-4.47,14.28-8.17,28.82-12.14,43.27-3.55,12.93-1.76,24,10.17,31.68,2.82,1.82,6.72,3.73,7.64,6.49,2.05,6.12,3.72,13,3,19.18-.25,2.12-8.13,4.65-12.52,4.66-28,0-43.65-21-36.33-48a41.28,41.28,0,0,0,1.25-11.89c-.78-24.28-3.31-48.63-2.19-72.81.83-17.87-4.22-30.59-18.5-39.31-17.17-10.5-24.09-25.16-22.87-46.09,1-16.61-1.75-33.44-3-52.45-25.35,3.4-30.5-14.72-34-34.64a61.4,61.4,0,0,0-3.47-13.37c-10-23.58-7-44.61,10.26-63.49,6.77-7.39,5.17-14.19,1.93-24.44-5.31-16.8-6-36,7-51.72,11.53-13.88,10.86-18.62-5.57-24.18C219.51,147.82,166,138.4,110.57,145.29c-18.09,2.25-36.41,2.54-54.63,3.73Z" transform="translate(0 0)"/></svg>