<?xml version="1.0" encoding="UTF-8" standalone="no"?>
<!DOCTYPE svg PUBLIC "-//W3C//DTD SVG 1.1//EN" "http://www.w3.org/Graphics/SVG/1.1/DTD/svg11.dtd">
<svg width="100%" height="100%" viewBox="0 0 834 834" version="1.1" xmlns="http://www.w3.org/2000/svg" xmlns:xlink="http://www.w3.org/1999/xlink" xml:space="preserve" xmlns:serif="http://www.serif.com/" style="fill-rule:evenodd;clip-rule:evenodd;stroke-linejoin:round;stroke-miterlimit:2;">
    <g transform="matrix(0.416667,0,0,-0.416667,0,833.333)">
        <path d="M1304,1759C1281,1733 1199,1690 1167,1688C1155,1687 1130,1697 1112,1710C1087,1729 1075,1732 1062,1724C1050,1716 1027,1717 982,1728C924,1742 915,1742 871,1726C832,1712 818,1711 797,1721C774,1731 766,1729 724,1701C698,1684 664,1670 649,1670C630,1670 615,1661 600,1641C588,1623 569,1610 553,1608C535,1606 518,1593 502,1570C489,1550 466,1532 450,1527C427,1521 419,1512 414,1484C410,1460 400,1446 385,1440C354,1428 345,1412 345,1365C345,1333 340,1323 323,1315C296,1304 288,1273 300,1232C307,1207 305,1196 292,1183C279,1170 275,1147 275,1076C275,987 274,983 237,927C188,852 192,838 266,841C313,843 323,841 333,823C340,811 361,782 381,758C401,735 424,702 431,686C439,668 457,653 475,647C492,641 517,629 532,619C561,598 586,595 595,610C598,616 593,620 583,620C572,620 555,627 544,636C526,651 526,651 549,646C566,643 570,644 562,652C556,658 531,665 506,667C464,672 430,690 462,690C470,690 493,699 515,710C562,734 559,734 554,713C551,701 566,678 598,647L647,599L678,617C696,627 708,641 705,648C699,664 704,663 749,641C781,624 803,622 888,625C944,627 999,634 1011,641C1042,657 1099,645 1130,615C1153,593 1158,591 1163,604C1167,614 1181,620 1199,620C1238,620 1301,688 1293,722C1290,735 1292,740 1297,734C1308,718 1366,690 1385,690C1394,690 1398,686 1395,680C1392,675 1378,670 1364,670C1324,670 1260,646 1260,631C1260,623 1263,620 1266,623C1270,626 1281,625 1292,619C1306,612 1317,614 1338,627C1353,638 1377,651 1391,657C1408,664 1419,679 1423,697C1426,713 1447,744 1470,766C1503,798 1512,816 1519,857C1523,885 1537,925 1549,946C1566,974 1570,994 1566,1019C1563,1039 1566,1072 1572,1093C1582,1125 1581,1136 1567,1159C1556,1178 1550,1213 1549,1266C1548,1310 1543,1350 1538,1357C1531,1365 1538,1374 1562,1386C1604,1408 1638,1447 1649,1485C1665,1543 1648,1552 1585,1520C1543,1498 1420,1491 1420,1510C1420,1516 1409,1525 1395,1530C1381,1535 1370,1544 1370,1548C1370,1553 1392,1587 1420,1624C1472,1695 1485,1723 1475,1740C1464,1757 1444,1751 1405,1720C1358,1683 1349,1682 1359,1718C1375,1777 1343,1802 1304,1759ZM1321,1711C1309,1695 1300,1678 1300,1673C1300,1667 1277,1646 1248,1624C1220,1603 1179,1567 1157,1545C1104,1493 1070,1470 1043,1470C1031,1470 1004,1459 984,1445C964,1431 940,1420 931,1420C907,1421 953,1454 1020,1486C1088,1518 1130,1557 1130,1586C1130,1598 1137,1613 1145,1620C1163,1635 1163,1630 1150,1596C1141,1573 1145,1574 1194,1613C1223,1636 1260,1665 1276,1678C1302,1699 1303,1701 1283,1696C1255,1691 1252,1706 1279,1715C1289,1718 1306,1730 1316,1741C1342,1770 1346,1746 1321,1711ZM1438,1706C1428,1699 1423,1690 1426,1687C1430,1684 1419,1664 1403,1643C1364,1592 1340,1553 1340,1540C1340,1534 1356,1522 1375,1514C1394,1506 1410,1493 1410,1485C1410,1465 1391,1466 1383,1486C1379,1497 1375,1498 1370,1490C1365,1483 1354,1481 1340,1485C1324,1490 1320,1497 1324,1513C1328,1530 1324,1528 1302,1504C1236,1432 1062,1367 1072,1418C1074,1427 1080,1435 1085,1435C1105,1436 1159,1470 1178,1495C1200,1522 1233,1530 1224,1505C1220,1497 1223,1490 1228,1490C1242,1490 1315,1577 1315,1594C1315,1601 1321,1615 1329,1624C1340,1637 1340,1640 1329,1640C1321,1641 1335,1651 1360,1664C1385,1677 1414,1697 1424,1709C1435,1721 1446,1727 1449,1724C1452,1721 1447,1713 1438,1706ZM912,1690C907,1654 891,1644 831,1641C794,1639 788,1641 794,1655C797,1664 800,1676 800,1681C800,1686 812,1690 828,1690C843,1691 866,1697 880,1705C915,1725 917,1724 912,1690ZM967,1698C980,1686 990,1682 990,1688C990,1705 1025,1703 1040,1685C1056,1666 1074,1666 1067,1685C1059,1705 1074,1712 1094,1697C1119,1679 1105,1670 991,1631C877,1592 850,1575 850,1544C850,1515 856,1514 895,1540C912,1551 931,1560 938,1560C945,1560 967,1575 986,1593C1023,1626 1060,1645 1060,1631C1060,1626 1028,1594 990,1559C938,1512 911,1478 890,1433C873,1397 849,1363 833,1353C817,1343 803,1333 800,1329C797,1326 783,1320 768,1317C754,1313 728,1299 712,1285C680,1258 670,1254 670,1270C670,1285 731,1350 740,1345C755,1335 833,1385 842,1410C851,1435 851,1434 821,1406C782,1368 769,1379 804,1420C824,1445 830,1462 830,1500C830,1527 826,1551 821,1555C812,1560 750,1462 740,1426C737,1415 729,1405 722,1404C715,1403 714,1404 720,1407C725,1409 728,1416 725,1420C717,1434 757,1513 795,1557C827,1595 842,1604 912,1629C937,1638 939,1642 929,1666C919,1693 923,1720 937,1720C940,1720 954,1710 967,1698ZM771,1682C766,1672 764,1654 767,1642C771,1626 768,1620 756,1620C747,1620 725,1613 708,1604C677,1588 661,1595 660,1626C660,1637 772,1712 778,1705C780,1703 777,1693 771,1682ZM640,1629C631,1614 632,1605 641,1594C655,1577 640,1555 608,1544C593,1539 582,1544 569,1561C552,1584 551,1584 544,1566C539,1554 541,1545 548,1542C567,1536 562,1502 541,1495C530,1492 519,1483 516,1475C508,1454 492,1457 485,1480C476,1510 534,1590 565,1590C580,1590 598,1601 612,1620C637,1654 656,1661 640,1629ZM738,1540C727,1507 714,1495 706,1509C703,1514 691,1516 680,1513C649,1505 655,1537 688,1554C703,1562 723,1569 732,1570C747,1570 747,1566 738,1540ZM1640,1517C1640,1515 1624,1497 1605,1477C1586,1457 1570,1435 1570,1427C1570,1411 1509,1376 1455,1361C1433,1355 1389,1335 1359,1317C1306,1285 1297,1283 1200,1281C1144,1280 1093,1283 1087,1289C1075,1298 1047,1303 1020,1301C1007,1300 1007,1299 1020,1290C1043,1275 971,1290 937,1307C922,1315 905,1318 900,1315C886,1307 876,1330 889,1343C896,1350 905,1349 919,1336C933,1323 947,1320 974,1325C994,1329 1010,1328 1010,1324C1010,1313 1048,1310 1168,1307C1267,1305 1319,1310 1327,1323C1330,1327 1316,1328 1296,1325C1271,1320 1260,1321 1260,1330C1260,1337 1268,1339 1281,1335C1296,1330 1309,1337 1334,1363C1361,1392 1374,1398 1422,1402C1463,1405 1492,1415 1529,1439C1557,1457 1580,1478 1580,1485C1580,1491 1590,1502 1603,1508C1626,1519 1640,1522 1640,1517ZM467,1470C467,1448 475,1418 484,1405C493,1391 496,1380 491,1380C486,1380 478,1385 474,1391C470,1399 460,1390 449,1369L432,1335L419,1362C409,1385 409,1398 420,1432C448,1520 464,1533 467,1470ZM598,1471C590,1459 580,1453 577,1457C573,1460 570,1457 570,1448C570,1440 560,1424 547,1412L524,1391L522,1413C521,1427 529,1442 542,1450C553,1458 572,1472 584,1482C610,1502 616,1498 598,1471ZM676,1459C655,1434 653,1427 662,1401C671,1378 669,1362 650,1314C632,1267 609,1237 536,1166C486,1117 456,1085 469,1096L493,1115L481,1093C475,1081 453,1058 433,1043C413,1028 365,985 327,948C269,891 261,880 280,880C323,880 378,902 383,921C386,932 396,943 407,947C417,951 430,961 437,969C448,983 449,983 450,966C450,956 434,932 414,914C392,892 384,880 394,880C402,880 414,871 420,860C426,849 437,843 444,846C464,854 498,834 545,788C595,741 614,734 642,755C665,772 665,772 633,766C614,763 600,765 600,770C600,776 605,780 611,780C617,780 620,787 617,795C609,815 674,827 696,809C706,801 735,796 771,797C807,798 830,795 830,788C830,783 823,781 814,784C804,788 801,786 806,778C811,771 805,769 786,774C772,777 760,776 760,771C760,766 768,760 778,757C787,755 776,749 750,743C712,734 710,732 735,731C752,731 777,736 792,744C810,754 821,755 829,747C836,740 825,730 793,713C755,692 740,689 696,695C623,705 587,722 530,776C486,817 471,825 422,831C390,836 361,846 354,854C345,867 331,869 281,864L219,857L239,891C250,910 269,936 281,948C293,962 300,979 297,991C291,1014 306,1026 314,1004C317,996 324,991 329,994C340,1001 322,1068 303,1091C288,1109 286,1146 300,1155C306,1158 310,1150 310,1136C310,1120 318,1106 333,1099C345,1092 359,1081 363,1074C378,1047 390,1061 435,1156C492,1279 546,1359 623,1437C685,1498 722,1514 676,1459ZM1344,1447C1347,1450 1350,1448 1350,1442C1350,1435 1346,1430 1340,1430C1335,1430 1330,1423 1330,1414C1330,1406 1326,1402 1320,1405C1315,1408 1310,1404 1310,1395C1310,1386 1306,1382 1300,1385C1295,1388 1290,1386 1290,1379C1290,1372 1287,1370 1283,1373C1280,1377 1271,1372 1263,1362C1255,1353 1252,1351 1256,1359C1260,1366 1249,1363 1232,1350C1216,1338 1197,1330 1192,1334C1186,1337 1180,1335 1178,1329C1175,1321 1164,1321 1136,1329C1114,1334 1094,1338 1091,1336C1088,1334 1079,1338 1072,1346C1061,1358 1062,1360 1077,1361C1138,1363 1177,1375 1229,1405C1262,1425 1292,1445 1295,1450C1299,1457 1308,1457 1319,1450C1329,1445 1340,1444 1344,1447ZM395,1376C395,1347 402,1324 414,1311C431,1292 431,1290 417,1290C406,1290 400,1282 400,1266C400,1230 383,1225 364,1255C352,1273 344,1278 337,1271C329,1263 336,1249 360,1225C390,1194 393,1187 382,1170C376,1159 370,1138 370,1123L369,1095L345,1123C331,1138 320,1162 320,1176C320,1201 335,1209 343,1188C345,1181 351,1178 355,1183C360,1187 354,1200 342,1213C311,1246 313,1288 346,1300C369,1309 372,1315 370,1353C366,1411 368,1420 383,1420C391,1420 395,1404 395,1376ZM1058,1408C1052,1390 1005,1369 959,1363C900,1355 911,1375 978,1398C1046,1422 1063,1424 1058,1408ZM1527,1288C1529,1247 1525,1231 1509,1213L1488,1191L1509,1197C1522,1200 1530,1198 1530,1189C1530,1182 1537,1168 1546,1158C1561,1143 1561,1134 1550,1093C1533,1030 1514,1000 1490,1000C1473,1000 1471,1004 1476,1026C1481,1044 1479,1051 1472,1046C1466,1043 1459,1043 1456,1048C1453,1053 1471,1069 1495,1085C1525,1104 1540,1120 1540,1134C1540,1153 1538,1153 1515,1126C1487,1093 1487,1093 1473,1135C1456,1188 1437,1176 1413,1098C1401,1058 1387,1005 1381,980C1371,937 1371,938 1374,1005C1376,1055 1383,1085 1399,1110C1410,1129 1420,1153 1420,1163C1420,1172 1425,1180 1432,1180C1455,1180 1510,1243 1510,1269L1509,1295L1493,1268C1478,1245 1466,1240 1395,1229C1312,1217 1250,1226 1234,1252C1229,1260 1234,1261 1251,1255C1292,1241 1348,1245 1368,1263C1382,1276 1396,1279 1414,1274C1436,1269 1442,1271 1447,1289C1452,1309 1492,1339 1515,1340C1521,1340 1526,1317 1527,1288ZM874,1279C869,1271 878,1269 903,1272C923,1274 941,1272 942,1268C944,1263 980,1254 1023,1246C1066,1239 1103,1230 1107,1227C1110,1223 1077,1221 1034,1221C991,1221 939,1218 919,1215C896,1211 880,1212 876,1219C871,1226 881,1230 905,1230C935,1230 939,1232 928,1244C917,1255 911,1256 890,1245C876,1238 854,1229 841,1225C823,1220 819,1221 826,1231C830,1239 821,1234 805,1221C780,1202 774,1201 772,1214C770,1225 760,1220 738,1194C718,1171 704,1162 697,1169C680,1186 698,1210 742,1230C766,1241 799,1259 815,1270C847,1292 886,1297 874,1279ZM780,1275C780,1272 749,1255 712,1236C627,1193 588,1151 522,1028C477,944 450,905 450,924C450,942 560,1138 588,1171C624,1213 780,1298 780,1275ZM1193,1247C1197,1250 1200,1248 1200,1241C1200,1234 1205,1232 1210,1235C1216,1238 1220,1237 1220,1231C1220,1221 1301,1187 1325,1187C1352,1187 1326,1148 1278,1117C1256,1103 1246,1102 1225,1112C1206,1121 1197,1121 1188,1112C1168,1092 1162,1098 1150,1150C1143,1178 1134,1203 1129,1206C1124,1209 1120,1216 1120,1222C1120,1228 1123,1230 1127,1227C1130,1223 1140,1229 1148,1241C1158,1255 1165,1258 1174,1251C1181,1245 1190,1243 1193,1247ZM815,1197C782,1176 740,1160 740,1169C740,1174 757,1185 778,1193C824,1213 841,1214 815,1197ZM1396,1163C1372,1116 1318,1069 1273,1057C1243,1049 1234,1043 1240,1035C1247,1027 1245,1023 1236,1023C1208,1023 1228,1055 1272,1079C1338,1117 1343,1121 1374,1163C1407,1206 1419,1206 1396,1163ZM657,1132C643,1117 620,1079 605,1048C590,1017 571,989 563,986C550,980 550,983 564,1005C573,1019 578,1030 575,1030C565,1030 612,1114 644,1155C669,1186 676,1190 678,1176C680,1166 671,1146 657,1132ZM1064,1158C1077,1140 1080,1139 1080,1153C1080,1162 1086,1170 1094,1170C1117,1170 1122,1134 1104,1098C1086,1061 1050,1023 1050,1040C1050,1046 1057,1053 1065,1056C1073,1060 1080,1073 1080,1086C1080,1124 1048,1115 1001,1065C978,1040 955,1020 950,1020C944,1020 940,1035 940,1054C940,1072 937,1108 934,1134L927,1180L988,1180C1040,1180 1051,1177 1064,1158ZM893,1103C896,1071 902,1035 906,1023C911,1004 908,1000 890,1000C877,1000 866,1008 863,1020C860,1031 852,1040 844,1040C836,1040 833,1046 837,1056C842,1070 840,1070 823,1059C797,1043 770,1053 770,1079C770,1098 850,1160 875,1160C882,1160 890,1137 893,1103ZM740,1081C740,1066 751,1036 766,1015L791,978L763,984C748,988 727,999 717,1009C701,1025 700,1032 710,1069C722,1116 740,1124 740,1081ZM1220,1100C1220,1083 1140,1006 1100,985C1005,935 958,916 855,888C780,868 715,870 643,895C600,910 592,908 611,887C618,879 634,875 645,877C658,879 660,878 650,874C642,870 625,856 614,842C597,823 586,819 566,824C552,827 540,835 540,841C540,846 526,856 510,861C493,867 480,876 480,882C480,887 476,889 471,885C466,882 458,884 455,890C451,896 454,899 461,898C467,896 487,914 504,936C536,980 534,979 617,964C642,959 650,962 660,979C666,991 675,998 681,995C686,991 687,984 684,978C679,971 683,969 693,973C702,976 711,973 714,964C717,955 723,951 728,954C732,956 736,950 736,941C736,926 731,924 710,929C696,933 667,933 645,930C608,925 607,924 630,916C668,904 770,893 770,902C770,906 782,910 796,910C832,910 937,938 975,957C991,966 1015,974 1027,976C1055,979 1164,1053 1187,1085C1206,1110 1220,1117 1220,1100ZM1343,1039C1332,1027 1314,1020 1304,1022C1288,1026 1289,1028 1312,1038C1326,1044 1341,1054 1345,1060C1349,1066 1355,1069 1358,1065C1361,1062 1355,1050 1343,1039ZM646,1001C642,995 630,985 618,979C598,968 598,968 616,999C627,1017 638,1026 643,1021C648,1016 649,1007 646,1001ZM1030,1015C1030,989 882,928 825,931C812,932 815,935 835,940C860,946 857,948 811,949C781,949 759,952 762,955C764,958 806,967 855,975C904,984 962,999 984,1009C1007,1020 1026,1029 1028,1029C1029,1030 1030,1023 1030,1015ZM1527,962C1512,946 1500,920 1498,900C1496,872 1488,862 1458,846C1437,835 1418,829 1414,832C1411,835 1420,861 1435,889C1449,918 1458,945 1455,950C1452,954 1466,964 1485,970C1505,977 1526,991 1533,1001C1543,1018 1545,1018 1548,1004C1550,995 1541,976 1527,962ZM1265,920C1225,859 1211,846 1163,824C1132,811 1100,802 1093,804C1086,807 1078,805 1075,800C1065,784 954,788 941,804C934,812 915,822 899,825C867,832 863,842 885,860C897,870 900,869 900,855C900,838 901,838 948,857C954,860 960,855 960,846C960,823 968,826 996,859C1009,875 1031,890 1045,892C1079,899 1077,884 1040,865C1008,848 1000,830 1026,830C1056,830 1082,852 1101,895C1126,952 1135,956 1150,919C1159,897 1168,890 1184,892C1209,896 1219,930 1195,930C1170,930 1183,954 1210,958C1223,960 1250,973 1269,986C1289,999 1306,1006 1308,1000C1310,994 1291,958 1265,920ZM1345,927C1320,867 1267,816 1192,782C1154,764 1110,748 1094,745C1038,737 975,718 940,700C921,689 886,671 864,659C833,643 815,639 794,645L765,653L804,662C849,672 930,720 930,736C930,742 958,750 997,753C1034,757 1100,772 1143,786C1243,819 1291,861 1320,938C1348,1011 1354,1020 1358,990C1360,976 1354,948 1345,927ZM1393,890C1379,863 1360,835 1352,828C1339,817 1338,817 1345,829C1350,839 1349,841 1341,836C1333,831 1332,824 1339,817C1345,809 1341,796 1325,778C1300,749 1284,740 1296,763C1300,769 1289,759 1272,740C1255,721 1243,700 1245,693C1247,687 1243,677 1237,672C1219,658 1150,650 1132,660C1122,664 1100,675 1081,683L1047,698L1096,709C1123,716 1151,722 1158,722C1164,723 1170,726 1170,730C1170,734 1188,743 1210,750C1231,757 1247,767 1244,771C1241,776 1246,780 1255,780C1264,780 1286,796 1306,815C1325,834 1348,850 1356,850C1364,850 1368,855 1365,860C1361,866 1353,867 1347,863C1340,860 1353,875 1375,898C1397,921 1416,940 1417,940C1418,940 1407,918 1393,890ZM829,845C816,832 743,833 730,846C724,852 740,856 780,855C818,855 836,852 829,845ZM375,820C378,815 401,810 425,810C463,810 467,808 463,791C460,778 465,768 481,760L503,748L480,730C458,714 456,714 437,733C423,747 420,755 428,758C447,764 442,780 421,780C400,780 337,829 357,830C363,830 372,826 375,820ZM1461,817C1499,832 1497,811 1457,792C1443,785 1421,764 1409,744C1388,709 1387,709 1368,727C1350,745 1352,786 1370,775C1384,766 1393,791 1381,803C1361,823 1369,829 1400,817C1422,808 1438,809 1461,817ZM870,780C863,764 854,750 850,750C832,750 833,765 852,791C878,826 887,821 870,780Z" style="fill:rgb(201,201,201);fill-rule:nonzero;"/>
        <path d="M1011,613C1002,609 1008,603 1029,594L1060,581L1060,473C1060,414 1057,370 1052,375C1048,381 1034,397 1021,412C999,437 999,440 1014,462C1039,497 1033,529 995,567L961,601L873,598C824,597 777,599 766,604C749,612 749,611 760,589C779,554 786,552 842,562C912,575 954,566 968,534C984,500 983,484 964,466C942,443 910,446 910,470C910,481 917,490 925,490C942,490 944,508 931,529C925,539 906,541 859,538C824,535 788,530 779,526C767,521 759,530 745,560C734,584 720,600 710,600C690,600 667,577 676,567C685,558 621,383 604,369C596,362 589,359 587,361C586,363 570,393 553,427L520,488L565,528C590,550 610,570 610,574C610,577 589,580 564,580C525,580 519,577 524,563C529,547 481,480 465,480C462,480 460,498 460,519C460,544 465,560 475,564C507,576 488,588 435,589C395,589 380,586 380,575C380,568 385,560 391,558C410,552 403,370 383,348C374,338 369,328 372,325C382,315 483,335 488,348C490,354 485,360 476,360C459,360 458,362 456,410C454,455 483,448 514,396C528,372 559,336 582,316C615,287 632,280 665,280C704,280 730,293 730,313C730,317 711,318 687,315C654,310 641,312 631,324C619,338 621,340 649,340C683,340 688,347 666,364C656,372 654,382 661,398C673,430 735,430 744,398C747,385 745,371 740,366C721,347 731,340 780,340C834,340 838,344 814,371C805,381 798,406 798,427C798,450 792,469 782,477C768,487 772,489 813,490L860,490L860,420C860,380 856,350 850,350C845,350 840,343 840,336C840,324 846,323 870,332C887,337 907,340 915,336C937,328 944,350 924,365C909,376 907,383 916,397C935,428 960,417 999,360C1046,291 1096,261 1134,278C1168,293 1168,314 1135,307C1119,304 1101,309 1087,321L1065,339L1098,340C1131,340 1141,354 1115,364C1104,368 1100,385 1100,430C1100,463 1104,490 1108,490C1113,490 1129,463 1145,430C1183,351 1234,313 1281,329C1299,335 1328,340 1346,340C1383,340 1388,346 1366,364C1356,372 1354,382 1361,398C1373,430 1435,430 1444,398C1447,385 1445,371 1440,366C1421,347 1431,340 1480,340C1535,340 1539,344 1513,373C1502,384 1496,407 1496,430C1497,453 1492,471 1485,474C1478,476 1469,494 1465,512C1443,613 1396,630 1374,545C1352,458 1314,376 1291,365C1280,360 1270,348 1270,340C1270,327 1269,327 1260,340C1255,348 1250,401 1250,457C1250,550 1252,560 1270,570C1302,587 1284,600 1234,596C1181,592 1171,584 1192,567C1208,555 1223,453 1211,445C1207,443 1189,470 1171,506C1122,601 1070,636 1011,613ZM722,485C724,460 721,454 703,452C677,448 674,463 690,506C703,538 717,528 722,485ZM1413,523C1416,518 1421,500 1425,483C1431,451 1430,450 1400,450C1373,450 1369,453 1375,468C1379,477 1385,495 1387,508C1392,530 1405,537 1413,523Z" style="fill:rgb(201,201,201);fill-rule:nonzero;"/>
        <path d="M108,590L140,570L140,465C140,402 136,360 130,360C125,360 120,382 120,408C120,434 115,461 108,468C99,477 99,480 109,480C117,480 120,494 118,527C115,568 111,576 89,584C74,589 54,590 44,586C26,579 26,578 43,566C57,555 60,537 60,457C60,404 56,358 50,355C23,338 48,330 125,330C205,330 228,339 196,357C184,364 174,447 180,495C180,501 200,469 223,426C257,362 274,342 309,321C349,298 353,298 345,315C340,326 334,383 332,441C329,527 332,549 344,560C371,582 362,590 310,590C259,590 246,577 276,556C287,547 290,530 288,490L285,435L251,498C206,581 171,610 117,610L75,610L108,590Z" style="fill:rgb(201,201,201);fill-rule:nonzero;"/>
        <path d="M1510,584C1510,578 1507,558 1504,541C1499,516 1501,510 1515,510C1525,510 1530,513 1527,517C1518,525 1549,560 1564,560C1571,560 1574,530 1572,468C1570,396 1565,372 1553,363C1529,344 1543,337 1602,337C1657,337 1671,348 1645,370C1634,379 1630,404 1630,471C1630,520 1634,560 1639,560C1644,560 1657,548 1668,533C1695,496 1710,509 1697,558L1687,597L1598,596C1540,595 1510,591 1510,584Z" style="fill:rgb(201,201,201);fill-rule:nonzero;"/>
        <path d="M1710,589C1710,582 1717,572 1726,566C1748,549 1748,380 1725,367C1688,347 1717,340 1845,340C1958,340 1980,342 1980,355C1980,367 1965,370 1913,372C1875,373 1835,373 1823,372C1803,371 1800,376 1800,411C1800,447 1802,450 1827,450C1841,450 1862,443 1872,433C1889,418 1890,419 1890,463C1890,507 1879,523 1865,500C1862,495 1846,490 1829,490C1802,490 1800,492 1800,530C1800,566 1802,570 1826,570C1842,570 1862,558 1880,538C1896,521 1912,509 1915,512C1918,515 1918,536 1914,559L1907,600L1809,600C1742,600 1710,596 1710,589Z" style="fill:rgb(201,201,201);fill-rule:nonzero;"/>
    </g>
</svg>
