<svg id="Gear" xmlns="http://www.w3.org/2000/svg" xmlns:xlink="http://www.w3.org/1999/xlink" viewBox="0 0 648 648"><defs><style>.cls-1{fill:#d86d32;}.cls-2{fill:url(#linear-gradient);}.cls-3{fill:url(#linear-gradient-2);}.cls-4{fill:url(#radial-gradient);}.cls-5{fill:none;stroke:#5e2a1e;stroke-linecap:round;stroke-miterlimit:10;stroke-width:35px;stroke-dasharray:0 131.95;}</style><linearGradient id="linear-gradient" x1="268.26" y1="435.45" x2="268.26" y2="180" gradientUnits="userSpaceOnUse"><stop offset="0" stop-color="#c9c9c9"/><stop offset="0.22" stop-color="#c6c6c6"/><stop offset="0.39" stop-color="#bcbdbd"/><stop offset="0.55" stop-color="#acadad"/><stop offset="0.7" stop-color="#949698"/><stop offset="0.83" stop-color="#767a7c"/><stop offset="0.96" stop-color="#525759"/><stop offset="1" stop-color="#474c4f"/></linearGradient><linearGradient id="linear-gradient-2" x1="448.26" y1="435.45" x2="448.26" y2="180" xlink:href="#linear-gradient"/><radialGradient id="radial-gradient" cx="360" cy="360" r="252" gradientUnits="userSpaceOnUse"><stop offset="0.58" stop-color="#5e2a1e"/><stop offset="0.6" stop-color="#672f20"/><stop offset="0.88" stop-color="#b85b2d"/><stop offset="1" stop-color="#d86d32"/></radialGradient></defs><g id="Cogs"><path class="cls-1" d="M518.71,180.67,437.94,134a6,6,0,0,1-1.52-9.21l52.46-59.69a6,6,0,0,1,7.55-1.25l53.79,31.05a6.05,6.05,0,0,1,2.7,7.17l-25.47,75.27A6,6,0,0,1,518.71,180.67Z" transform="translate(-37.33 -36)"/><path class="cls-1" d="M587.29,283.39l-46.63-80.78a6,6,0,0,1,3.29-8.74l75.28-25.46a6,6,0,0,1,7.16,2.7l31.05,53.78a6,6,0,0,1-1.24,7.55L596.51,284.9A6,6,0,0,1,587.29,283.39Z" transform="translate(-37.33 -36)"/><path class="cls-1" d="M595.33,406.64V313.36a6,6,0,0,1,7.22-5.92L680.47,323a6,6,0,0,1,4.86,5.92v62.1a6,6,0,0,1-4.86,5.92l-77.92,15.59A6,6,0,0,1,595.33,406.64Z" transform="translate(-37.33 -36)"/><path class="cls-1" d="M540.66,517.39l46.63-80.78a6,6,0,0,1,9.22-1.51l59.69,52.46a6,6,0,0,1,1.24,7.55l-31.05,53.78a6,6,0,0,1-7.16,2.7L544,526.13A6,6,0,0,1,540.66,517.39Z" transform="translate(-37.33 -36)"/><path class="cls-1" d="M437.94,586l80.77-46.64a6,6,0,0,1,8.74,3.3l25.47,75.27a6.05,6.05,0,0,1-2.7,7.17l-53.79,31a6,6,0,0,1-7.55-1.25l-52.46-59.69A6,6,0,0,1,437.94,586Z" transform="translate(-37.33 -36)"/><path class="cls-1" d="M314.69,594H408a6,6,0,0,1,5.92,7.22L398.3,679.15a6,6,0,0,1-5.92,4.85H330.27a6,6,0,0,1-5.92-4.85l-15.58-77.93A6,6,0,0,1,314.69,594Z" transform="translate(-37.33 -36)"/><path class="cls-1" d="M203.94,539.33,284.71,586a6,6,0,0,1,1.52,9.21l-52.46,59.69a6,6,0,0,1-7.55,1.25l-53.79-31a6.05,6.05,0,0,1-2.7-7.17l25.47-75.27A6,6,0,0,1,203.94,539.33Z" transform="translate(-37.33 -36)"/><path class="cls-1" d="M135.36,436.61,182,517.39a6,6,0,0,1-3.29,8.74l-75.28,25.46a6,6,0,0,1-7.16-2.7L65.21,495.11a6,6,0,0,1,1.24-7.55l59.69-52.46A6,6,0,0,1,135.36,436.61Z" transform="translate(-37.33 -36)"/><path class="cls-1" d="M127.33,313.36v93.28a6,6,0,0,1-7.23,5.92L42.18,397a6,6,0,0,1-4.85-5.92V329A6,6,0,0,1,42.18,323l77.92-15.59A6,6,0,0,1,127.33,313.36Z" transform="translate(-37.33 -36)"/><path class="cls-1" d="M182,202.61l-46.63,80.78a6,6,0,0,1-9.22,1.51L66.45,232.44a6,6,0,0,1-1.24-7.55l31.05-53.78a6,6,0,0,1,7.16-2.7l75.28,25.46A6,6,0,0,1,182,202.61Z" transform="translate(-37.33 -36)"/><path class="cls-1" d="M284.71,134l-80.77,46.64a6,6,0,0,1-8.74-3.3L169.73,102.1a6.05,6.05,0,0,1,2.7-7.17l53.79-31.05a6,6,0,0,1,7.55,1.25l52.46,59.69A6,6,0,0,1,284.71,134Z" transform="translate(-37.33 -36)"/><path class="cls-1" d="M408,126H314.69a6,6,0,0,1-5.92-7.22l15.58-77.93A6,6,0,0,1,330.27,36h62.11a6,6,0,0,1,5.92,4.85l15.58,77.93A6,6,0,0,1,408,126Z" transform="translate(-37.33 -36)"/></g><g id="Fangs"><path id="Left" class="cls-2" d="M305.39,435.45s-46.07-29.8-77.81-108C202.9,266.65,216,216,216,216l108-36s-10.1,70.42-13.19,108.74C307.36,331.44,305.39,435.45,305.39,435.45Z" transform="translate(-37.33 -36)"/><path id="Right" class="cls-3" d="M411.14,435.45s46.06-29.8,77.8-108C513.63,266.65,500.53,216,500.53,216l-108-36s10.09,70.42,13.19,108.74C409.17,331.44,411.14,435.45,411.14,435.45Z" transform="translate(-37.33 -36)"/></g><path id="Gear_Body" data-name="Gear Body" class="cls-4" d="M360,108c-139.18,0-252,112.82-252,252S220.82,612,360,612,612,499.18,612,360,499.18,108,360,108Zm0,432A180,180,0,1,1,540,360,180,180,0,0,1,360,540Z" transform="translate(-37.33 -36)"/><g id="Bolts"><circle class="cls-5" cx="322.67" cy="324" r="252"/></g></svg>