<svg id="Logos" xmlns="http://www.w3.org/2000/svg" viewBox="0 0 720 720"><defs><style>.cls-1{fill:#474c4f;}.cls-2{fill:#c9c9c9;}</style></defs><path class="cls-1" d="M0,720V0H720V720Zm278.8-85.64-.21-.2c14.75,15.24,23.81,33.8,31.1,55.23,5.54-14.79,10.46-27.94,15.57-41.62,11.67,7.89,21.66,16,26.38,30.54,6-11,11.37-20.83,17.61-32.27,4.87,13.26,9,24.56,13.46,36.64,11.15-19.26,22.05-38.07,33.92-58.58,1.51,12.51,2.83,23.47,4.16,34.56,9.87-13.07,17.8-28.16,33.25-37.95v21.36c1.89-2.57,3.06-4.49,4.54-6.12,9.27-10.2,18.31-20.63,28.09-30.33a27,27,0,0,1,12.83-6.57c9.5-2,19.25-2.91,29.15-4.3-.26,3.44-.56,7.43-1,13.11,5.44-6.82,9.31-12.74,14.22-17.61,9.08-9,17.75-19,28.44-25.6,17.59-10.85,33.56-23,46.35-39.26,1.4-1.79,2.9-3.5,4.83-5.82,10.63,11.9,23.1,6.29,35.2,4.91,17.16-2,27.46-11.74,32.52-27.75.85-2.68,1.81-5.34,2.4-8.07,4.83-22.58-6.05-40.11-26.79-40.56,0-4.09-.72-8.34.11-12.25,10.64-49.79,19.53-99.76,18.68-151-.4-24-5.24-46.66-16.46-68.24-28.83-55.48-71.41-97.33-126.09-126.49C448.91,41,350.67,27.39,248.06,44.05,176.31,55.7,121.5,93.28,83.37,155c-20.57,33.31-32.84,69.8-39,108.31-7.79,48.63-7.82,97.2,5.14,145,4.25,15.67,11.84,30.45,18.06,45.57,1.86,4.5,2.43,7.77-3.36,9.88C45.83,470.43,39,490,49.46,506.51A60.82,60.82,0,0,0,83.9,532.9c8.42,2.51,17.2,3.11,25.67-2.42,2.75-1.8,8.39-.55,12.09.89,3.27,1.28,5.65,4.79,8.48,7.25,33.21,28.88,64.14,60.61,102.27,83.39,13.67,8.17,21.49,20.47,27.88,34.23.82,1.75,1.58,3.53,2.78,6.22,4-8.68,7.43-16.35,11.19-23.84C275.14,636.88,277.25,635.77,278.8,634.36Z" transform="translate(0)"/><path class="cls-2" d="M278.8,634.36c-1.55,1.41-3.66,2.52-4.54,4.26-3.76,7.49-7.16,15.16-11.19,23.84-1.2-2.69-2-4.47-2.78-6.22-6.39-13.76-14.21-26.06-27.88-34.23-38.13-22.78-69.06-54.51-102.27-83.39-2.83-2.46-5.21-6-8.48-7.25-3.7-1.44-9.34-2.69-12.09-.89-8.47,5.53-17.25,4.93-25.67,2.42a60.82,60.82,0,0,1-34.44-26.39C39,490,45.83,470.43,64.19,463.76c5.79-2.11,5.22-5.38,3.36-9.88-6.22-15.12-13.81-29.9-18.06-45.57-13-47.78-12.93-96.35-5.14-145,6.18-38.51,18.45-75,39-108.31,38.13-61.74,92.94-99.32,164.69-111,102.61-16.66,200.85-3,293,46.11,54.68,29.16,97.26,71,126.09,126.49,11.22,21.58,16.06,44.26,16.46,68.24.85,51.2-8,101.17-18.68,151-.83,3.91-.11,8.16-.11,12.25,20.74.45,31.62,18,26.79,40.56-.59,2.73-1.55,5.39-2.4,8.07-5.06,16-15.36,25.79-32.52,27.75-12.1,1.38-24.57,7-35.2-4.91-1.93,2.32-3.43,4-4.83,5.82-12.79,16.24-28.76,28.41-46.35,39.26-10.69,6.6-19.36,16.62-28.44,25.6-4.91,4.87-8.78,10.79-14.22,17.61.44-5.68.74-9.67,1-13.11-9.9,1.39-19.65,2.25-29.15,4.3a27,27,0,0,0-12.83,6.57c-9.78,9.7-18.82,20.13-28.09,30.33-1.48,1.63-2.65,3.55-4.54,6.12V620.71c-15.45,9.79-23.38,24.88-33.25,37.95-1.33-11.09-2.65-22-4.16-34.56-11.87,20.51-22.77,39.32-33.92,58.58-4.43-12.08-8.59-23.38-13.46-36.64-6.24,11.44-11.6,21.27-17.61,32.27-4.72-14.5-14.71-22.65-26.38-30.54-5.11,13.68-10,26.83-15.57,41.62-7.29-21.43-16.35-40-31.11-55.23,15.53,9.47,22.28,25.89,32.69,42.12,4.18-13.11,7.87-24.7,11.78-36.95,9.88,8.3,19.33,16.22,29.12,24.43l18.15-30.61,12.22,29.35,2.58.65,31.33-45.7L426,640c6.17-6.16,11.33-11.59,16.8-16.69,5.29-4.93,10.89-9.51,16.36-14.25l2,1.53c.68,4.43,1.35,8.86,2.2,14.38,3.23-4.09,6-7.18,8.32-10.63,11.2-16.94,26.13-26.83,47.15-27,3.64,0,7.44-4,10.79-6.6,1.75-1.37,2.68-3.8,4.45-6.44l1,9c11.43-9.41,21.93-19.53,33.87-27.51,15-10.05,28.77-21.39,38.78-36.24,7.76-11.49,15.88-16.87,29.08-9.64.32.17.87-.07,1.86-.18-.35-4.36-.84-8.74-1-13.12-.3-6.84,2.06-11.78,9.49-13.36,6.45-1.37,12.82-3.19,21.19-5.31l-27.52-7.9,10.95-10L645.66,456a16.18,16.18,0,0,1,2.6-1.93c5.46-2.36,7.48-5.35,6.47-12.2-1-6.54,1.55-13.7,3.08-20.47,1.07-4.76,3.57-9.21,4.55-14,8.72-42.2,12.44-84.83,9.83-127.87-1.1-18.08-5.08-35.51-13.15-52.07C627.1,162,576.1,116.55,510.5,87.06,427.81,49.88,341.31,40.83,252.07,54.94,174.49,67.21,118.57,109.32,83.79,179,51.07,244.59,44.33,314.13,57,385.77c2.35,13.3,7,26.18,10.37,39.32s13.4,23.12,15.78,37.17c1,5.93.16,7.55-4.15,9.94,1.51,1,2.49,1.59,3.45,2.23,7.31,4.8,7.41,8.41.31,13.74-2.24,1.68-4.63,3.16-7.73,5.26,17.63,1.21,17.63,1.21,23.78,21.06,1.53-.09,3.16-.09,4.75-.28,10.91-1.34,20.19.24,25.6,11.65,2.37,5,6.3,9.28,9.73,13.74a14.83,14.83,0,0,0,4.18,3.21c2.41,1.46,5.37,2.29,7.35,4.17,24.57,23.47,47.89,48.7,77.81,65.42,15,8.38,26.88,18.15,33.71,33.85.13.29.77.36,1.71.76,3.63-4.91,7.35-9.93,11.35-15.35Z" transform="translate(0)"/><path class="cls-1" d="M278.8,634.36l-3.82-2.7c-4,5.42-7.72,10.44-11.35,15.35-.94-.4-1.58-.47-1.71-.76-6.83-15.7-18.71-25.47-33.71-33.85C198.29,595.68,175,570.45,150.4,547c-2-1.88-4.94-2.71-7.35-4.17a14.83,14.83,0,0,1-4.18-3.21c-3.43-4.46-7.36-8.74-9.73-13.74-5.41-11.41-14.69-13-25.6-11.65-1.59.19-3.22.19-4.75.28-6.15-19.85-6.15-19.85-23.78-21.06,3.1-2.1,5.49-3.58,7.73-5.26,7.1-5.33,7-8.94-.31-13.74-1-.64-1.94-1.25-3.45-2.23,4.31-2.39,5.15-4,4.15-9.94-2.38-14.05-12.46-24-15.78-37.17s-8-26-10.37-39.32C44.33,314.13,51.07,244.59,83.79,179c34.78-69.69,90.7-111.8,168.28-124.07,89.24-14.11,175.74-5.06,258.43,32.12C576.1,116.55,627.1,162,659,227.53c8.07,16.56,12.05,34,13.15,52.07,2.61,43-1.11,85.67-9.83,127.87-1,4.76-3.48,9.21-4.55,14-1.53,6.77-4,13.93-3.08,20.47,1,6.85-1,9.84-6.47,12.2a16.18,16.18,0,0,0-2.6,1.93l6.12,4.09-10.95,10,27.52,7.9c-8.37,2.12-14.74,3.94-21.19,5.31-7.43,1.58-9.79,6.52-9.49,13.36.2,4.38.69,8.76,1,13.12-1,.11-1.54.35-1.86.18-13.2-7.23-21.32-1.85-29.08,9.64-10,14.85-23.74,26.19-38.78,36.24-11.94,8-22.44,18.1-33.87,27.51l-1-9c-1.77,2.64-2.7,5.07-4.45,6.44-3.35,2.62-7.15,6.57-10.79,6.6-21,.14-35.95,10-47.15,27-2.28,3.45-5.09,6.54-8.32,10.63-.85-5.52-1.52-10-2.2-14.38l-2-1.53c-5.47,4.74-11.07,9.32-16.36,14.25-5.47,5.1-10.63,10.53-16.8,16.69l-9.58-22.58-31.33,45.7-2.58-.65-12.22-29.35-18.15,30.61c-9.79-8.21-19.24-16.13-29.12-24.43-3.91,12.25-7.6,23.84-11.78,36.95-10.41-16.23-17.16-32.65-32.69-42.12Zm74.1-70.11c4,8.76,12,11,21.23,9.39,9.45-1.64,14.23-8.67,16.74-17.09,1.37-4.61,1.43-9.65,1.74-14.52.53-8.17.19-16.43,1.3-24.5,2-14.24,9.11-20.3,23.41-21.29,4.67-.33,9.34-.79,14-1.35,17-2.05,29.08-10.78,35.95-26.57,5.69-13.08,6.91-26.79,4.65-40.62-3.37-20.63-11.46-28.56-32.23-30.65-10.88-1.09-22-.1-33,0-15.09.19-25.4,7.83-32.66,20.64A108,108,0,0,1,364,432.1c-5.9,7.28-10,7.39-15.76.15-5.25-6.58-9.28-14.21-15-20.34C328.69,407,323,401.67,316.8,399.86c-16.8-4.9-34.26-4.94-51.49-1.58-16.35,3.2-23.52,11.1-26.47,27.65-2.41,13.56,0,26.54,4.34,39.32,6.4,18.8,19.24,30,39,32.9A167.86,167.86,0,0,0,299.66,500c7.28.29,10.73,4.26,11.16,10.95.67,10.5.55,21.05,1.42,31.53.58,7.13,1.15,14.62,3.72,21.16,4.17,10.6,17.27,15.07,26.4,9.73C346.23,571.1,349.3,567.43,352.9,564.25Z" transform="translate(0)"/><path class="cls-2" d="M352.9,564.25c-3.6,3.18-6.67,6.85-10.54,9.12-9.13,5.34-22.23.87-26.4-9.73-2.57-6.54-3.14-14-3.72-21.16-.87-10.48-.75-21-1.42-31.53-.43-6.69-3.88-10.66-11.16-10.95a167.86,167.86,0,0,1-17.45-1.85c-19.79-2.87-32.63-14.1-39-32.9-4.36-12.78-6.75-25.76-4.34-39.32,2.95-16.55,10.12-24.45,26.47-27.65,17.23-3.36,34.69-3.32,51.49,1.58,6.19,1.81,11.89,7.11,16.48,12.05,5.68,6.13,9.71,13.76,15,20.34,5.77,7.24,9.86,7.13,15.76-.15a108,108,0,0,0,10.06-14.37c7.26-12.81,17.57-20.45,32.66-20.64,11-.14,22.08-1.13,33,0,20.77,2.09,28.86,10,32.23,30.65,2.26,13.83,1,27.54-4.65,40.62-6.87,15.79-18.95,24.52-35.95,26.57-4.65.56-9.32,1-14,1.35-14.3,1-21.45,7.05-23.41,21.29-1.11,8.07-.77,16.33-1.3,24.5-.31,4.87-.37,9.91-1.74,14.52-2.51,8.42-7.29,15.45-16.74,17.09C364.86,575.26,356.91,573,352.9,564.25Zm31.67-100.78c3.41,2.46,6.9,4.31,9.54,7,9.94,10.13,25.53,10,34.55-1,3-3.72,5-8.34,7.28-12.66,1.87-3.59,3.44-7.33,5.54-11.87-10.28-1-20.85-2.65-31.45-2.85C395,441.78,389.8,453.85,384.57,463.47ZM273.31,448.62c2.18,4.69,3.94,8.88,6.05,12.89s4.17,8.47,7.11,12c8.45,10.16,24.26,10.41,33.78,1.21,2.92-2.82,6.55-4.9,10.24-7.61-1.48-2.32-3.94-5.23-5.34-8.59-3.93-9.44-12-12.67-20.88-12.66C293.88,445.87,283.48,447.64,273.31,448.62Z" transform="translate(0)"/><path class="cls-1" d="M384.57,463.47c5.23-9.62,10.4-21.69,25.46-21.41,10.6.2,21.17,1.87,31.45,2.85-2.1,4.54-3.67,8.28-5.54,11.87-2.26,4.32-4.24,8.94-7.28,12.66-9,11-24.61,11.15-34.55,1C391.47,467.78,388,465.93,384.57,463.47Z" transform="translate(0)"/><path class="cls-1" d="M273.31,448.62c10.17-1,20.57-2.75,31-2.76,8.92,0,17,3.22,20.88,12.66,1.4,3.36,3.86,6.27,5.34,8.59-3.69,2.71-7.32,4.79-10.24,7.61-9.52,9.2-25.33,8.95-33.78-1.21-2.94-3.53-5-7.88-7.11-12S275.49,453.31,273.31,448.62Z" transform="translate(0)"/></svg>