<svg id="Logos" xmlns="http://www.w3.org/2000/svg" viewBox="0 0 720 720"><defs><style>.cls-1{fill:#474c4f;}.cls-2{fill:#c9c9c9;}</style></defs><rect class="cls-1" width="720" height="720"/><path class="cls-2" d="M599.49,252.09c21.41,0,42.83-.23,64.25,0,29,.38,45.93,26.14,34.83,52.59-16.7,39.78-33.3,79.6-50.13,119.33-6.29,14.85-15.89,27.59-27.57,38.82-6.31,6.06-12.82,6.75-17.25,2-4.24-4.54-3.07-11.21,3-16.95,57.56-54.63,34.93-147.66-42-171.3-27.47-8.45-54.26-5.18-79.43,8.81-7.25,4-13.06,3.37-16.29-2.38s-.85-12,6.5-15.84a132.6,132.6,0,0,1,61.51-14.91c20.87-.08,41.73,0,62.6,0Z" transform="translate(0)"/><path class="cls-2" d="M514.09,379.45c.67,9.81,2.94,17.41,11.46,21.84s21.41,3.06,28.79-3c9.34-7.63,15.36-8.88,27.9-5.79-3.17,17.56-18.62,30-40.37,31.37-20.3,1.31-38.06-4.45-48.14-23-10.74-19.75-10.53-40.21,2.54-59,12.09-17.36,30-22.72,50.67-19.31,26.74,4.41,38.69,28.53,38.69,52,0,5.5-3.85,4.88-7.41,4.88H514.09Zm.67-17.63H557c-1.37-13.38-8.22-19.8-20.6-19.86C523.86,341.9,516,348.92,514.76,361.82Z" transform="translate(0)"/><path class="cls-2" d="M251.32,324.79c0,16.76,0,32.61,0,48.45a104.46,104.46,0,0,0,.54,12.89c1.46,11.52,6.31,16.35,16.26,16.72,11.43.43,19-4.54,20.31-15.63,1.43-12.52,1.05-25.24,1.3-37.87.16-8,0-16,0-24.53h26.84c.2,2.5.56,4.83.56,7.15,0,27.19-.18,54.38.16,81.57.07,6.4-1.84,8.71-8.37,8.15-5.64-.49-11.35-.1-17.23-.1-.45-4.16-.79-7.25-1.26-11.52-2.71,2.31-4.62,4-6.63,5.64-12.59,10-26.78,10.56-41.21,5.49-13.17-4.62-17.68-15.88-18-28.32-.58-22.52-.17-45.07-.17-68.09Z" transform="translate(0)"/><path class="cls-2" d="M217.47,373.75c-.47,31-21,50.84-52,50.41-31.31-.44-51.27-21.14-50.65-52.54.6-30.74,21.39-50.58,52.41-50C198.07,322.17,218,342.8,217.47,373.75ZM141.63,373c1,5.26,1.37,10.43,2.94,15.23,3.52,10.76,11.21,15.88,22.23,15.62,10.59-.26,19-5.44,20.79-16.09a89.77,89.77,0,0,0-.39-30.89c-1.92-10-10.53-14.81-20.88-14.91s-17.94,4.7-21.33,14.55C143.18,361.77,142.71,367.48,141.63,373Z" transform="translate(0)"/><path class="cls-2" d="M18,389.81c7.83,0,14.91-.29,21.94.21,1.61.11,3.59,2.67,4.44,4.52,5.22,11.42,24,15.7,33.78,7.55,5.88-4.88,5.33-12.36-1.71-15.8-4.86-2.38-10.27-3.73-15.51-5.25-8.42-2.43-17.25-3.8-25.28-7.09-18.47-7.58-21.26-31.33-5.57-43.58,15.16-11.84,50.32-11.84,65.52,0,6.71,5.22,10.15,12.11,10.46,22.21-7.27,0-14.55.17-21.81-.15-1.38-.06-3.07-1.85-3.93-3.25-5.42-8.89-18.54-12.85-27.77-7.7-2.26,1.26-4.8,4.55-4.66,6.75.17,2.68,2.44,6.4,4.85,7.54,5.36,2.53,11.35,3.84,17.14,5.45,7.39,2.06,15.08,3.3,22.19,6,20.53,7.86,24.06,33.38,6.8,47.13-16.66,13.29-53.41,13.09-69.8-.4C22,408.11,18.45,400.55,18,389.81Z" transform="translate(0)"/><path class="cls-2" d="M483,384.25c-2.27,26.16-23.35,42.05-51.29,39.73-30-2.49-48-24.28-45.63-55.2,2.32-30.37,23.93-49.09,54.36-47.09,25,1.65,42.75,17,41.45,36.81-7.28,0-14.66.27-22-.21-1.69-.11-3.89-2.51-4.66-4.34-3.33-7.95-9.36-11.65-17.85-12s-15.18,3.07-19.05,10.4c-7.14,13.56-7.19,27.54-.29,41.17,3.75,7.43,10.54,10.71,19.05,10.23s15.33-4.1,17.76-12.09c2-6.7,5.75-8,11.93-7.52C472,384.59,477.19,384.25,483,384.25Z" transform="translate(0)"/><path class="cls-2" d="M350.79,324.3c.46,5,.84,9.13,1.27,13.76,5.16-4.22,9.49-8.67,14.68-11.74,4.08-2.42,9.14-3.5,13.91-4.5,6-1.25,9.4.85,8.85,7.66-.44,5.54-.09,11.14-.09,17.19h-9.14c-15.95,0-25.84,8.34-26.93,24.33-.95,13.93-.82,28-.52,41.94.13,6.47-1.52,8.94-8.63,8.82-18.78-.31-18.79,0-18.79-18.05,0-23.94.19-47.88-.12-71.82-.09-6.07,1.82-8.18,8-7.69C338.89,324.66,344.61,324.3,350.79,324.3Z" transform="translate(0)"/></svg>