<svg id="Logos" xmlns="http://www.w3.org/2000/svg" viewBox="0 0 720 720"><defs><style>.cls-1{fill:#474c4f;}.cls-2{fill:#c9c9c9;}</style></defs><g id="Unreal"><path class="cls-1" d="M0,720V0H720V720ZM42.43,358.69C42.32,534.56,183.57,677.27,358,677.53c175.41.26,317.14-142.38,317.14-319.16,0-175.83-141.59-318.88-315.65-318.91C183.83,39.43,42.54,181.69,42.43,358.69Z" transform="translate(0)"/><path class="cls-2" d="M42.43,358.69c.11-177,141.4-319.26,317.07-319.23,174.06,0,315.65,143.08,315.65,318.91,0,176.78-141.73,319.42-317.14,319.16C183.57,677.27,42.32,534.56,42.43,358.69Zm13.82,0c0,168,135.42,304.7,302,304.89,167.25.2,302.58-136,302.78-304.83.21-168.4-134.79-305.11-301.36-305.18C191.63,53.54,56.25,189.68,56.25,358.73Z" transform="translate(0)"/><path class="cls-1" d="M56.25,358.73c0-169,135.38-305.19,303.43-305.12C526.25,53.68,661.25,190.39,661,358.79c-.2,168.78-135.53,305-302.78,304.83C191.67,663.43,56.24,526.71,56.25,358.73Zm73.59,50.44c.68-1.27,1.37-2.54,2-3.83,17-32.77,38.63-62.14,65.94-87a93.56,93.56,0,0,1,25.42-16.49c16.27-7,27,.92,27,18.55q0,66.17,0,132.32c0,26.91-4.09,30.55-31.26,28,9.49,10.15,19,20.57,30.16,28.63,32.36,23.33,69.6,34.2,108.58,40.15,5.44.83,8.86-.76,12.43-4.67,13.08-14.36,26.49-28.44,40.18-43.06l42.9,36.46c49.65-30.94,84.39-74,111.7-126.54-12.57,10.42-22.71,20.35-34.36,28a98.56,98.56,0,0,1-30.13,13c-12.38,3-19.28-3.55-19.42-16.21-.56-49.2-.4-98.42-1.62-147.6-.52-20.95,5.46-38.43,18.74-54.38,13-15.61,24.91-32.13,38.07-49.27-47.48,10.19-87.2,32.07-118.85,64.63L381,242.26l-1.73,3.38c1.91,1.29,4.09,2.31,5.67,3.92,9.72,10,16.42,21.68,16.49,35.87.26,50.71.15,101.42,0,152.13,0,2.44-.67,6.2-2.3,7.12-12.89,7.35-25.51,15.86-39.37,20.69-15.17,5.29-33-10.45-32.66-27.35,1.29-57.88.5-115.81.5-173.72v-9.93c-15.75,3.35-21.18-.29-24.17-15.73-3.88-20.09,2-37.44,15.49-52.25,6.08-6.7,13.11-12.54,20.52-19.52-2.39.56-3.81.81-5.19,1.22-44.17,13-81.38,37.63-114.27,69.19-28.18,27-55.41,55-73.33,90.38C133.81,353.09,126,379.75,129.84,409.17Z" transform="translate(0)"/><path class="cls-2" d="M129.84,409.17c-3.88-29.42,4-56.08,16.86-81.51,17.92-35.37,45.15-63.33,73.33-90.38,32.89-31.56,70.1-56.18,114.27-69.19,1.38-.41,2.8-.66,5.19-1.22-7.41,7-14.44,12.82-20.52,19.52-13.47,14.81-19.37,32.16-15.49,52.25,3,15.44,8.42,19.08,24.17,15.73v9.93c0,57.91.79,115.84-.5,173.72-.38,16.9,17.49,32.64,32.66,27.35,13.86-4.83,26.48-13.34,39.37-20.69,1.63-.92,2.3-4.68,2.3-7.12.12-50.71.23-101.42,0-152.13-.07-14.19-6.77-25.88-16.49-35.87-1.58-1.61-3.76-2.63-5.67-3.92l1.73-3.38,36.38,7.55c31.65-32.56,71.37-54.44,118.85-64.63-13.16,17.14-25.07,33.66-38.07,49.27-13.28,16-19.26,33.43-18.74,54.38,1.22,49.18,1.06,98.4,1.62,147.6.14,12.66,7,19.23,19.42,16.21a98.56,98.56,0,0,0,30.13-13c11.65-7.64,21.79-17.57,34.36-28-27.31,52.52-62.05,95.6-111.7,126.54l-42.9-36.46c-13.69,14.62-27.1,28.7-40.18,43.06-3.57,3.91-7,5.5-12.43,4.67-39-6-76.22-16.82-108.58-40.15C238,501.25,228.51,490.83,219,480.68c27.17,2.58,31.26-1.06,31.26-28q0-66.15,0-132.32c0-17.63-10.77-25.57-27-18.55a93.56,93.56,0,0,0-25.42,16.49c-27.31,24.87-48.94,54.24-65.94,87C131.21,406.63,130.52,407.9,129.84,409.17Z" transform="translate(0)"/></g></svg>