<svg id="Logos" xmlns="http://www.w3.org/2000/svg" viewBox="0 0 720 720"><defs><style>.cls-1{fill:#474c4f;}.cls-2{fill:#c9c9c9;}</style></defs><path class="cls-1" d="M720,720H0V0H720ZM409.52,284.73c-30.26,34.56-58.49,67-87.13,99.15-2.91,3.26-8.21,4.51-12.54,6.36-36.13,15.39-73.51,28.38-108.17,46.57-53.6,28.12-103.19,62.52-137.47,114.28a102.15,102.15,0,0,0-14.43,33.17c-3.31,14.72,3,22.19,18,20.47,20.36-2.35,41.45-5,60.33-12.32,67.52-26.38,121.51-72,168.69-125.91,10.94-12.5,23.11-18.55,39-16.9,46.54,4.84,93.27,8.61,139.46,15.79,29.82,4.64,59.12,13.73,84,32.64,13.47,10.23,20.85,22,14.42,39.87-4.57,12.76-.25,24.78,10.34,32.91,23.17,17.77,46.69,35.14,70.69,51.76,8.2,5.68,19.21,16.14,27.95,5.86,4.35-5.12,1.28-19.39-2.27-27.92C649.46,526.19,598.83,468.7,529,428.77c-48.89-27.94-101.32-45.65-162.3-48.91,22.58-24.57,42.89-46.18,62.58-68.34,6.46-7.28,12.15-6.41,20.86-4.24,17.73,4.43,37.06,11.23,54,8.05,39.66-7.44,68.22-33.48,88.67-67.76,9.34-15.68,4.94-33.86-11.57-40.53-12.59-5.08-28-7.95-41.11-5.67-14,2.43-28,10.43-39.79,19-13.39,9.65-25.12,11.58-39.54,3.57a123.2,123.2,0,0,0-28-11.37c-31.73-8.37-63.52-21.88-95.56-22.68-100.58-2.5-165.37,56.73-216.1,135.89-2.19,3.42-3.23,10.87-1.21,12.93,3,3,9.94,5.14,13.87,3.78,21-7.25,42.11-14.61,62-24.4,6.33-3.12,9.81-13.42,13-21.09,4.25-10.06,4.58-22.53,10.76-30.89,24.72-33.45,74.59-45.9,111.86-27.17C358.36,252.45,383.64,269.39,409.52,284.73Zm26.25-108.35.15,1c11.55-1.66,23.27-2.58,34.61-5.14,15.33-3.46,22-12.84,19-28-5.51-27.06-18.9-49.54-43-64.36-14.56-9-29.17-8.15-43.58,1-22,14-34.29,39.88-28.6,60.9,5.81,21.51,26.09,34.23,55.08,34.57C431.51,176.4,433.64,176.38,435.77,176.38Z" transform="translate(0)"/><path class="cls-2" d="M409.52,284.73c-25.88-15.34-51.16-32.28-78.14-45.83-37.27-18.73-87.14-6.28-111.86,27.17-6.18,8.36-6.51,20.83-10.76,30.89-3.23,7.67-6.71,18-13,21.09-19.86,9.79-41,17.15-62,24.4-3.93,1.36-10.9-.74-13.87-3.78-2-2.06-1-9.51,1.21-12.93,50.73-79.16,115.52-138.39,216.1-135.89,32,.8,63.83,14.31,95.56,22.68a123.2,123.2,0,0,1,28,11.37c14.42,8,26.15,6.08,39.54-3.57,11.84-8.53,25.77-16.53,39.79-19,13.1-2.28,28.52.59,41.11,5.67,16.51,6.67,20.91,24.85,11.57,40.53-20.45,34.28-49,60.32-88.67,67.76-17,3.18-36.31-3.62-54-8.05-8.71-2.17-14.4-3-20.86,4.24-19.69,22.16-40,43.77-62.58,68.34,61,3.26,113.41,21,162.3,48.91,69.88,39.93,120.51,97.42,151.43,171.74,3.55,8.53,6.62,22.8,2.27,27.92-8.74,10.28-19.75-.18-27.95-5.86-24-16.62-47.52-34-70.69-51.76-10.59-8.13-14.91-20.15-10.34-32.91,6.43-17.92-.95-29.64-14.42-39.87-24.91-18.91-54.21-28-84-32.64C429,458.21,382.3,454.44,335.76,449.6c-15.87-1.65-28,4.4-39,16.9C249.6,520.43,195.61,566,128.09,592.41c-18.88,7.37-40,10-60.33,12.32-14.93,1.72-21.29-5.75-18-20.47a102.15,102.15,0,0,1,14.43-33.17c34.28-51.76,83.87-86.16,137.47-114.28,34.66-18.19,72-31.18,108.17-46.57,4.33-1.85,9.63-3.1,12.54-6.36C351,351.77,379.26,319.29,409.52,284.73Zm-146,172.57c-51.29,12-96.83,26.91-135.5,56.44-13.89,10.6-23.85,26.59-34.58,40.88C90.94,558,90.4,566.79,92.75,569c3.43,3.18,10.55,4.12,15.68,3.32,7.2-1.12,14.34-4.08,21-7.35C180.83,539.51,222.56,501.94,263.56,457.3ZM519.75,241.7c20.9,9.38,43.27,5.11,54.43-10.4C556.56,223.25,534.48,227.47,519.75,241.7Z" transform="translate(0)"/><path class="cls-2" d="M435.77,176.38c-2.13,0-4.26,0-6.39,0-29-.34-49.27-13.06-55.08-34.57-5.69-21,6.59-46.95,28.6-60.9,14.41-9.13,29-9.93,43.58-1,24.11,14.82,37.5,37.3,43,64.36,3.08,15.13-3.63,24.51-19,28-11.34,2.56-23.06,3.48-34.61,5.14Z" transform="translate(0)"/><path class="cls-1" d="M263.56,457.3c-41,44.64-82.73,82.21-134.17,107.64-6.62,3.27-13.76,6.23-21,7.35-5.13.8-12.25-.14-15.68-3.32-2.35-2.18-1.81-11,.73-14.35,10.73-14.29,20.69-30.28,34.58-40.88C166.73,484.21,212.27,469.27,263.56,457.3Z" transform="translate(0)"/><path class="cls-1" d="M519.75,241.7c14.73-14.23,36.81-18.45,54.43-10.4C563,246.81,540.65,251.08,519.75,241.7Z" transform="translate(0)"/></svg>